<svg width="56" height="45" viewBox="0 0 56 45" fill="none" xmlns="http://www.w3.org/2000/svg">
<path d="M0.5 8C0.5 3.85786 3.85786 0.5 8 0.5H48C52.1421 0.5 55.5 3.85786 55.5 8V37C55.5 41.1421 52.1421 44.5 48 44.5H8C3.85786 44.5 0.5 41.1421 0.5 37V8Z" fill="white"/>
<path d="M0.5 8C0.5 3.85786 3.85786 0.5 8 0.5H48C52.1421 0.5 55.5 3.85786 55.5 8V37C55.5 41.1421 52.1421 44.5 48 44.5H8C3.85786 44.5 0.5 41.1421 0.5 37V8Z" stroke="#00A76F"/>
<path d="M27 30.5C27 30.7652 27.1054 31.0196 27.2929 31.2071C27.4804 31.3946 27.7348 31.5 28 31.5C28.2652 31.5 28.5196 31.3946 28.7071 31.2071C28.8946 31.0196 29 30.7652 29 30.5V23.5H36C36.2652 23.5 36.5196 23.3946 36.7071 23.2071C36.8946 23.0196 37 22.7652 37 22.5C37 22.2348 36.8946 21.9804 36.7071 21.7929C36.5196 21.6054 36.2652 21.5 36 21.5H29V14.5C29 14.2348 28.8946 13.9804 28.7071 13.7929C28.5196 13.6054 28.2652 13.5 28 13.5C27.7348 13.5 27.4804 13.6054 27.2929 13.7929C27.1054 13.9804 27 14.2348 27 14.5V21.5H20C19.7348 21.5 19.4804 21.6054 19.2929 21.7929C19.1054 21.9804 19 22.2348 19 22.5C19 22.7652 19.1054 23.0196 19.2929 23.2071C19.4804 23.3946 19.7348 23.5 20 23.5H27V30.5Z" fill="#00A76F"/>
</svg>
