<svg width="92" height="92" viewBox="0 0 92 92" fill="none" xmlns="http://www.w3.org/2000/svg">
<path fill-rule="evenodd" clip-rule="evenodd" d="M46.0013 7.66666C24.8304 7.66666 7.66797 24.8291 7.66797 46C7.66797 67.1709 24.8304 84.3333 46.0013 84.3333C67.1722 84.3333 84.3346 67.1709 84.3346 46C84.3346 35.8334 80.296 26.0831 73.1071 18.8942C65.9182 11.7053 56.1679 7.66666 46.0013 7.66666ZM46.0013 65.1667C43.8842 65.1667 42.168 63.4504 42.168 61.3333C42.168 59.2162 43.8842 57.5 46.0013 57.5C48.1184 57.5 49.8346 59.2162 49.8346 61.3333C49.8346 63.4504 48.1184 65.1667 46.0013 65.1667ZM46.0013 53.6667C48.1184 53.6667 49.8346 51.9504 49.8346 49.8333V30.6667C49.8346 28.5496 48.1184 26.8333 46.0013 26.8333C43.8842 26.8333 42.168 28.5496 42.168 30.6667V49.8333C42.168 51.9504 43.8842 53.6667 46.0013 53.6667Z" fill="#1877F2"/>
</svg>
