<svg xmlns="http://www.w3.org/2000/svg" width="36" height="35" fill="none" stroke="#f0f8ff"
    stroke-width="1.5" xmlns:v="https://vecta.io/nano">
    <path
        d="M14.594 31.719a3.04 3.04 0 0 0 1.097 1.579c.527.394 1.167.607 1.825.607s1.298-.213 1.825-.607a3.04 3.04 0 0 0 1.097-1.579M17.512 4.375V1.094"
        stroke-linecap="round" stroke-linejoin="round" />
    <path
        d="M17.512 4.375a10.95 10.95 0 0 1 7.739 3.204c2.053 2.051 3.206 4.833 3.206 7.734 0 10.275 2.189 12.031 2.189 12.031H4.378s2.189-2.794 2.189-12.031c0-2.901 1.153-5.683 3.206-7.734a10.95 10.95 0 0 1 7.739-3.204z"
        stroke-linejoin="round" />
</svg>