<svg width="28" height="30" xmlns="http://www.w3.org/2000/svg" stroke-width="1.5" stroke="#f0f8ff" fill="none">

 <g>
  <title>Layer 1</title>
  <g stroke="null" id="svg_4">
   <path stroke="null" id="svg_1" stroke-linejoin="round" stroke-linecap="round" d="m11.32692,26.92765a2.56633,2.71203 0 0 0 0.92607,1.40865c0.44489,0.35149 0.98517,0.54151 1.54064,0.54151s1.09575,-0.19002 1.54064,-0.54151a2.56633,2.71203 0 0 0 0.92607,-1.40865m-2.47009,-24.39399l0,-2.92703"/>
   <path stroke="null" id="svg_2" stroke-linejoin="round" d="m13.79025,2.53366a9.24384,9.76866 0 0 1 6.53316,2.85834c1.73311,1.82973 2.70646,4.31159 2.70646,6.89962c0,9.16648 1.84792,10.73303 1.84792,10.73303l-22.17508,0s1.84792,-2.49257 1.84792,-10.73303c0,-2.58802 0.97335,-5.06989 2.70646,-6.89962a9.24384,9.76866 0 0 1 6.53316,-2.85834z"/>
  </g>
 </g>
</svg>