<svg xmlns="http://www.w3.org/2000/svg" width="41" height="40" viewBox="0 0 41 40" fill="none">
  <path opacity="0.32"
    d="M26.8555 16.9902V17.6942C26.8555 18.5392 27.0955 19.3652 27.5475 20.0682L28.6555 21.7912C29.6665 23.3652 28.8945 25.5042 27.1355 26.0012C22.5393 27.3032 17.6718 27.3032 13.0755 26.0012C11.3165 25.5042 10.5445 23.3652 11.5555 21.7912L12.6635 20.0682C13.1171 19.3596 13.3576 18.5356 13.3565 17.6942V16.9902C13.3565 13.1242 16.3785 9.99023 20.1055 9.99023C23.8325 9.99023 26.8555 13.1242 26.8555 16.9902Z"
    fill="white" />
  <path
    d="M20.8547 13.9902C20.8547 13.7913 20.7756 13.6006 20.635 13.4599C20.4943 13.3193 20.3036 13.2402 20.1047 13.2402C19.9057 13.2402 19.715 13.3193 19.5743 13.4599C19.4337 13.6006 19.3547 13.7913 19.3547 13.9902V17.9902C19.3547 18.1891 19.4337 18.3799 19.5743 18.5206C19.715 18.6612 19.9057 18.7402 20.1047 18.7402C20.3036 18.7402 20.4943 18.6612 20.635 18.5206C20.7756 18.3799 20.8547 18.1891 20.8547 17.9902V13.9902ZM15.3477 26.5352C15.6744 27.5393 16.3105 28.4143 17.165 29.0348C18.0194 29.6553 19.0482 29.9894 20.1042 29.9894C21.1601 29.9894 22.189 29.6553 23.0434 29.0348C23.8978 28.4143 24.5339 27.5393 24.8607 26.5352C21.7157 27.1252 18.4937 27.1252 15.3477 26.5352Z"
    fill="white" />
  <g>
    <title>Layer 1</title>
    <g stroke="null" id="svg_4">
    </g>
  </g>
</svg>