<svg width="33" height="33" viewBox="0 0 33 33" fill="none" xmlns="http://www.w3.org/2000/svg">
<path d="M4.67969 9.28348C4.67969 8.64667 5.13361 8.12959 5.69411 8.12959H9.20053C9.89655 8.10853 10.511 7.60461 10.7478 6.85991L10.7873 6.72833L10.9386 6.21389C11.0307 5.89811 11.111 5.62181 11.2241 5.37577C11.6688 4.40344 12.4925 3.72847 13.4438 3.55611C13.6858 3.5127 13.9411 3.5127 14.2332 3.5127H18.8093C19.1027 3.5127 19.358 3.5127 19.5987 3.55611C20.55 3.72847 21.375 4.40344 21.8184 5.37577C21.9315 5.62181 22.0118 5.89679 22.1052 6.21389L22.2552 6.72833L22.2947 6.85991C22.5315 7.60461 23.2683 8.10985 23.9656 8.12959H27.3471C27.9089 8.12959 28.3628 8.64667 28.3628 9.28348C28.3628 9.92029 27.9089 10.4374 27.3484 10.4374H5.6928C5.13361 10.4374 4.67969 9.92029 4.67969 9.28348Z" fill="white"/>
<path fill-rule="evenodd" clip-rule="evenodd" d="M15.9897 29.8273H17.0528C20.7145 29.8273 22.5446 29.8273 23.7367 28.6615C24.9261 27.4958 25.0472 25.584 25.2906 21.7605L25.6419 16.2503C25.7734 14.1754 25.8392 13.1372 25.2432 12.4807C24.6459 11.8228 23.638 11.8228 21.621 11.8228H11.4215C9.40447 11.8228 8.3953 11.8228 7.79928 12.4807C7.20194 13.1386 7.26772 14.1754 7.40061 16.2503L7.75191 21.7605C7.99532 25.584 8.11637 27.4971 9.3071 28.6615C10.4978 29.8273 12.328 29.8273 15.9897 29.8273ZM14.2135 16.9186C14.1608 16.3476 13.6766 15.9319 13.1346 15.9884C12.5912 16.045 12.1964 16.5542 12.2504 17.1252L12.9083 24.0499C12.9609 24.6209 13.4451 25.0367 13.9871 24.9801C14.5305 24.9235 14.9253 24.4144 14.8713 23.8433L14.2135 16.9186ZM19.9092 15.9884C20.4513 16.045 20.8474 16.5542 20.7921 17.1252L20.1342 24.0499C20.0816 24.6209 19.5961 25.0367 19.0553 24.9801C18.5119 24.9235 18.1172 24.4144 18.1712 23.8433L18.829 16.9186C18.8817 16.3476 19.3685 15.9319 19.9092 15.9884Z" fill="white"/>
</svg>
