<svg xmlns="http://www.w3.org/2000/svg" width="23" height="22" viewBox="0 0 23 22" fill="none">
  <g opacity="0.32">
    <path
      d="M19.3561 7.33333H12.0228C11.7797 7.33333 11.5465 7.23676 11.3746 7.06485C11.2027 6.89294 11.1061 6.65978 11.1061 6.41667C11.1061 6.17355 11.2027 5.94039 11.3746 5.76849C11.5465 5.59658 11.7797 5.5 12.0228 5.5H19.3561C19.5992 5.5 19.8324 5.59658 20.0043 5.76849C20.1762 5.94039 20.2728 6.17355 20.2728 6.41667C20.2728 6.65978 20.1762 6.89294 20.0043 7.06485C19.8324 7.23676 19.5992 7.33333 19.3561 7.33333ZM19.3561 11H12.0228C11.7797 11 11.5465 10.9034 11.3746 10.7315C11.2027 10.5596 11.1061 10.3264 11.1061 10.0833C11.1061 9.84022 11.2027 9.60706 11.3746 9.43515C11.5465 9.26324 11.7797 9.16667 12.0228 9.16667H19.3561C19.5992 9.16667 19.8324 9.26324 20.0043 9.43515C20.1762 9.60706 20.2728 9.84022 20.2728 10.0833C20.2728 10.3264 20.1762 10.5596 20.0043 10.7315C19.8324 10.9034 19.5992 11 19.3561 11Z"
      fill="white" />
    <path
      d="M19.3561 14.6667H2.85612C2.613 14.6667 2.37985 14.5701 2.20794 14.3982C2.03603 14.2263 1.93945 13.9931 1.93945 13.75C1.93945 13.5069 2.03603 13.2737 2.20794 13.1018C2.37985 12.9299 2.613 12.8333 2.85612 12.8333H19.3561C19.5992 12.8333 19.8324 12.9299 20.0043 13.1018C20.1762 13.2737 20.2728 13.5069 20.2728 13.75C20.2728 13.9931 20.1762 14.2263 20.0043 14.3982C19.8324 14.5701 19.5992 14.6667 19.3561 14.6667ZM12.0228 18.3333H2.85612C2.613 18.3333 2.37985 18.2368 2.20794 18.0648C2.03603 17.8929 1.93945 17.6598 1.93945 17.4167C1.93945 17.1736 2.03603 16.9404 2.20794 16.7685C2.37985 16.5966 2.613 16.5 2.85612 16.5H12.0228C12.2659 16.5 12.4991 16.5966 12.671 16.7685C12.8429 16.9404 12.9395 17.1736 12.9395 17.4167C12.9395 17.6598 12.8429 17.8929 12.671 18.0648C12.4991 18.2368 12.2659 18.3333 12.0228 18.3333Z"
      fill="white" />
  </g>
  <rect x="1.93945" y="3.6665" width="7.33333" height="7.33333" rx="2" fill="white" />
  <defs>
    <clipPath id="A">
      <path id="svg_1" d="m0.018,0l30.021,0l0,30l-30.021,0l0,-30z" fill="#fff" />
    </clipPath>
  </defs>
  <g>
    <title>Layer 1</title>
    <g stroke="" id="svg_2" stroke-width="1.5" clip-path="url(#A)">
      <g stroke="null" id="svg_3" stroke-linejoin="round">
        <path stroke="null" id="svg_4"
          d="m22.83612,3.23129l-18.07941,0a1.95318,1.95318 0 0 0 -1.95474,1.95318l0,13.57226a1.95318,1.95318 0 0 0 1.95474,1.95318l18.07941,0a1.95318,1.95318 0 0 0 1.95474,-1.95318l0,-13.57226a1.95318,1.95318 0 0 0 -1.95474,-1.95318z" />
        <g stroke="null" id="svg_5" stroke-linecap="round">
          <path stroke="null" id="svg_6"
            d="m11.79753,20.70913l-1.00003,3.99542m0.00078,-0.00078l5.49703,0m-0.49845,-3.99464l0.99847,3.99542" />
          <path stroke="null" id="svg_7"
            d="m18.29458,24.70377l-8.99556,0m-6.49706,-7.50177l21.9889,0m-18.87631,-9.92137l2.21412,0m2.21569,0l1.32894,0" />
          <path stroke="null" id="svg_8"
            d="m5.91455,10.26665l1.32816,0m2.21569,0l2.21412,0m-5.75797,2.98524l5.75797,0m3.12509,-10.02059l0,13.9707m0,-3.21806l2.9829,-2.90633a2.86727,2.86727 0 0 1 3.43447,-0.08203l3.57744,2.98837" />
        </g>
      </g>
      <path stroke="null" id="svg_9"
        d="m18.28911,7.76892c-0.26954,0 -0.48829,-0.21876 -0.48829,-0.48829s0.21876,-0.48829 0.48829,-0.48829m-0.00078,0.97659c0.26954,0 0.48829,-0.21876 0.48829,-0.48829s-0.21876,-0.48829 -0.48829,-0.48829" />
    </g>
  </g>
</svg>
