<svg width="35" height="34" viewBox="0 0 35 34" fill="none" xmlns="http://www.w3.org/2000/svg">
<path d="M17.4978 14.2222C20.5661 14.2222 23.0534 11.7349 23.0534 8.66664C23.0534 5.59839 20.5661 3.11108 17.4978 3.11108C14.4296 3.11108 11.9423 5.59839 11.9423 8.66664C11.9423 11.7349 14.4296 14.2222 17.4978 14.2222Z" fill="white"/>
<path fill-rule="evenodd" clip-rule="evenodd" d="M23.7478 30.8889C21.4562 30.8889 20.3103 30.8889 19.5992 30.1764C18.8867 29.4652 18.8867 28.3194 18.8867 26.0277C18.8867 23.7361 18.8867 22.5902 19.5992 21.8791C20.3103 21.1666 21.4562 21.1666 23.7478 21.1666C26.0395 21.1666 27.1853 21.1666 27.8964 21.8791C28.6089 22.5902 28.6089 23.7361 28.6089 26.0277C28.6089 28.3194 28.6089 29.4652 27.8964 30.1764C27.1853 30.8889 26.0395 30.8889 23.7478 30.8889ZM24.5576 23.8666C24.5576 23.6519 24.4722 23.4459 24.3204 23.2941C24.1685 23.1422 23.9626 23.0569 23.7478 23.0569C23.5331 23.0569 23.3271 23.1422 23.1753 23.2941C23.0234 23.4459 22.9381 23.6519 22.9381 23.8666V25.218H21.5867C21.372 25.218 21.166 25.3033 21.0142 25.4552C20.8623 25.607 20.777 25.813 20.777 26.0277C20.777 26.2425 20.8623 26.4485 21.0142 26.6003C21.166 26.7522 21.372 26.8375 21.5867 26.8375H22.9381V28.1889C22.9381 28.4036 23.0234 28.6096 23.1753 28.7614C23.3271 28.9133 23.5331 28.9986 23.7478 28.9986C23.9626 28.9986 24.1685 28.9133 24.3204 28.7614C24.4722 28.6096 24.5576 28.4036 24.5576 28.1889V26.8375H25.9089C26.1237 26.8375 26.3296 26.7522 26.4815 26.6003C26.6334 26.4485 26.7187 26.2425 26.7187 26.0277C26.7187 25.813 26.6334 25.607 26.4815 25.4552C26.3296 25.3033 26.1237 25.218 25.9089 25.218H24.5576V23.8666Z" fill="white"/>
<path d="M22.6062 19.0875C21.9492 19.0944 21.3367 19.1194 20.8034 19.1902C19.9103 19.3111 18.9326 19.5972 18.1256 20.4055C17.3173 21.2125 17.0312 22.1902 16.9117 23.0833C16.8034 23.8861 16.8034 24.8666 16.8034 25.9083V26.1472C16.8034 27.1889 16.8034 28.1694 16.9117 28.9722C16.9951 29.5986 17.1617 30.2666 17.5326 30.8889H17.4978C6.38672 30.8889 6.38672 28.0902 6.38672 24.6389C6.38672 21.1875 11.3617 18.3889 17.4978 18.3889C19.3395 18.3889 21.077 18.6402 22.6062 19.0875Z" fill="white"/>
</svg>
