<svg width="64" height="64" viewBox="0 0 64 64" fill="none" xmlns="http://www.w3.org/2000/svg">
<g opacity="0.98">
<path fill-rule="evenodd" clip-rule="evenodd" d="M32.0007 58.6667C19.43 58.6667 13.1447 58.6667 9.23798 54.76C5.33398 50.8587 5.33398 44.5707 5.33398 32C5.33398 19.4293 5.33398 13.144 9.23798 9.23734C13.1473 5.33334 19.43 5.33334 32.0007 5.33334C44.5713 5.33334 50.8567 5.33334 54.7607 9.23734C58.6673 13.1467 58.6673 19.4293 58.6673 32C58.6673 44.5707 58.6673 50.856 54.7607 54.76C50.8593 58.6667 44.5713 58.6667 32.0007 58.6667ZM23.334 17.3333C23.334 16.8029 23.1233 16.2942 22.7482 15.9191C22.3731 15.5441 21.8644 15.3333 21.334 15.3333C20.8036 15.3333 20.2948 15.5441 19.9198 15.9191C19.5447 16.2942 19.334 16.8029 19.334 17.3333V20.6667H16.0007C15.4702 20.6667 14.9615 20.8774 14.5864 21.2525C14.2114 21.6275 14.0007 22.1362 14.0007 22.6667C14.0007 23.1971 14.2114 23.7058 14.5864 24.0809C14.9615 24.456 15.4702 24.6667 16.0007 24.6667H19.334V28C19.334 28.5304 19.5447 29.0392 19.9198 29.4142C20.2948 29.7893 20.8036 30 21.334 30C21.8644 30 22.3731 29.7893 22.7482 29.4142C23.1233 29.0392 23.334 28.5304 23.334 28V24.6667H26.6673C27.1978 24.6667 27.7065 24.456 28.0815 24.0809C28.4566 23.7058 28.6673 23.1971 28.6673 22.6667C28.6673 22.1362 28.4566 21.6275 28.0815 21.2525C27.7065 20.8774 27.1978 20.6667 26.6673 20.6667H23.334V17.3333ZM37.334 20.6667C36.8036 20.6667 36.2948 20.8774 35.9198 21.2525C35.5447 21.6275 35.334 22.1362 35.334 22.6667C35.334 23.1971 35.5447 23.7058 35.9198 24.0809C36.2948 24.456 36.8036 24.6667 37.334 24.6667H48.0007C48.5311 24.6667 49.0398 24.456 49.4149 24.0809C49.7899 23.7058 50.0007 23.1971 50.0007 22.6667C50.0007 22.1362 49.7899 21.6275 49.4149 21.2525C49.0398 20.8774 48.5311 20.6667 48.0007 20.6667H37.334ZM37.334 36.6667C36.8036 36.6667 36.2948 36.8774 35.9198 37.2525C35.5447 37.6275 35.334 38.1362 35.334 38.6667C35.334 39.1971 35.5447 39.7058 35.9198 40.0809C36.2948 40.456 36.8036 40.6667 37.334 40.6667H48.0007C48.5311 40.6667 49.0398 40.456 49.4149 40.0809C49.7899 39.7058 50.0007 39.1971 50.0007 38.6667C50.0007 38.1362 49.7899 37.6275 49.4149 37.2525C49.0398 36.8774 48.5311 36.6667 48.0007 36.6667H37.334ZM18.7473 37.2533C18.3682 36.9001 17.8667 36.7077 17.3486 36.7169C16.8305 36.726 16.3361 36.9359 15.9697 37.3024C15.6032 37.6688 15.3933 38.1631 15.3842 38.6813C15.375 39.1994 15.5674 39.7009 15.9207 40.08L18.5073 42.6667L15.9207 45.2533C15.7242 45.4364 15.5665 45.6572 15.4572 45.9026C15.3479 46.1479 15.2891 46.4127 15.2844 46.6813C15.2797 46.9498 15.3291 47.2166 15.4297 47.4656C15.5302 47.7146 15.68 47.9409 15.8699 48.1308C16.0598 48.3207 16.286 48.4704 16.5351 48.571C16.7841 48.6716 17.0508 48.721 17.3194 48.7163C17.5879 48.7115 17.8528 48.6527 18.0981 48.5434C18.3434 48.4341 18.5642 48.2765 18.7473 48.08L21.334 45.4933L23.9207 48.08C24.1038 48.2765 24.3246 48.4341 24.5699 48.5434C24.8152 48.6527 25.0801 48.7115 25.3486 48.7163C25.6171 48.721 25.8839 48.6716 26.1329 48.571C26.3819 48.4704 26.6082 48.3207 26.7981 48.1308C26.988 47.9409 27.1377 47.7146 27.2383 47.4656C27.3389 47.2166 27.3883 46.9498 27.3836 46.6813C27.3788 46.4127 27.32 46.1479 27.2107 45.9026C27.1014 45.6572 26.9438 45.4364 26.7473 45.2533L24.1607 42.6667L26.7473 40.08C26.9438 39.8969 27.1014 39.6761 27.2107 39.4308C27.32 39.1854 27.3788 38.9206 27.3836 38.6521C27.3883 38.3835 27.3389 38.1168 27.2383 37.8678C27.1377 37.6187 26.988 37.3925 26.7981 37.2026C26.6082 37.0127 26.3819 36.8629 26.1329 36.7624C25.8839 36.6618 25.6171 36.6124 25.3486 36.6171C25.0801 36.6218 24.8152 36.6806 24.5699 36.7899C24.3246 36.8992 24.1038 37.0568 23.9207 37.2533L21.334 39.84L18.7473 37.2533ZM37.334 44.6667C36.8036 44.6667 36.2948 44.8774 35.9198 45.2525C35.5447 45.6275 35.334 46.1362 35.334 46.6667C35.334 47.1971 35.5447 47.7058 35.9198 48.0809C36.2948 48.456 36.8036 48.6667 37.334 48.6667H48.0007C48.5311 48.6667 49.0398 48.456 49.4149 48.0809C49.7899 47.7058 50.0007 47.1971 50.0007 46.6667C50.0007 46.1362 49.7899 45.6275 49.4149 45.2525C49.0398 44.8774 48.5311 44.6667 48.0007 44.6667H37.334Z" fill="#86B6CD"/>
</g>
</svg>
