<svg xmlns="http://www.w3.org/2000/svg" xmlns:xlink="http://www.w3.org/1999/xlink" width="31"
    height="30" fill="none" xmlns:v="https://vecta.io/nano">
    <g stroke="#f0f8ff">
        <g stroke-linejoin="round" stroke-width="1.5">
            <path
                d="M23.482.938H6.595c-1.036 0-1.876.839-1.876 1.875v24.375c0 1.035.84 1.875 1.876 1.875h16.887c1.036 0 1.876-.84 1.876-1.875V2.813c0-1.036-.84-1.875-1.876-1.875z" />
            <path
                d="M20.667 4.688H9.409a.94.94 0 0 0-.938.938v3.75a.94.94 0 0 0 .938.938h11.258a.94.94 0 0 0 .938-.937v-3.75a.94.94 0 0 0-.938-.937z" />
        </g>
        <g stroke-width="1.5">
            <use xlink:href="#A" />
            <use xlink:href="#B" />
            <use xlink:href="#A" y="4.687" />
            <use xlink:href="#B" y="4.687" />
            <use xlink:href="#A" y="9.375" />
            <use xlink:href="#B" y="9.375" />
            <use xlink:href="#A" x="5.356" />
            <use xlink:href="#B" x="5.353" />
            <use xlink:href="#A" x="5.356" y="4.687" />
            <use xlink:href="#B" x="5.353" y="4.687" />
            <use xlink:href="#A" x="5.356" y="9.375" />
            <use xlink:href="#B" x="5.353" y="9.375" />
            <use xlink:href="#A" x="10.321" />
            <use xlink:href="#B" x="10.318" />
            <use xlink:href="#A" x="10.321" y="4.687" />
            <use xlink:href="#B" x="10.318" y="4.687" />
            <use xlink:href="#A" x="10.321" y="9.375" />
            <use xlink:href="#B" x="10.318" y="9.375" />
        </g>
    </g>
    <defs>
        <path id="A" d="M9.877 15.938a.47.47 0 0 1-.469-.469.47.47 0 0 1 .469-.469" />
        <path id="B" d="M9.879 15.938a.47.47 0 0 0 .469-.469.47.47 0 0 0-.469-.469" />
    </defs>
</svg>