<svg width="29" height="22" viewBox="0 0 29 22" fill="none" xmlns="http://www.w3.org/2000/svg">
<path d="M9.00046 17.1685L3.29735 11.4864C2.99005 11.1802 2.57325 11.0082 2.13865 11.0082C1.70405 11.0082 1.28726 11.1802 0.97995 11.4864C0.672643 11.7926 0.5 12.2078 0.5 12.6408C0.5 12.8552 0.542385 13.0675 0.624735 13.2656C0.707085 13.4637 0.827787 13.6436 0.97995 13.7952L7.84998 20.6399C8.49096 21.2785 9.5264 21.2785 10.1674 20.6399L27.5561 3.31535C27.8634 3.00918 28.0361 2.59392 28.0361 2.16092C28.0361 1.72793 27.8634 1.31267 27.5561 1.0065C27.2488 0.700327 26.832 0.52832 26.3974 0.52832C25.9628 0.52832 25.546 0.700327 25.2387 1.0065L9.00046 17.1685Z" fill="#319F43"/>
</svg>
