<svg width="102" height="102" viewBox="0 0 102 102" fill="none" xmlns="http://www.w3.org/2000/svg">
<circle cx="51" cy="51" r="51" fill="#DEF3DE"/>
<path d="M47.4634 65.5921H47.465H47.4876V65.5921L47.4937 65.5921C48.2598 65.5827 48.9887 65.2586 49.5045 64.6953C49.5049 64.6949 49.5053 64.6945 49.5056 64.6941L70.1423 42.419C70.8674 41.71 71.1392 40.6613 70.8443 39.6923C70.5482 38.7194 69.7318 37.993 68.7288 37.8002C67.7319 37.6085 66.7072 37.974 66.0639 38.7546L47.4376 58.8568L38.4975 49.4587C37.4541 48.3617 35.7101 48.3074 34.5989 49.3361C33.4839 50.3683 33.4276 52.1003 34.4747 53.2012L34.475 53.2015L45.4516 64.7214C45.452 64.7219 45.4525 64.7223 45.4529 64.7228C45.9735 65.2758 46.7016 65.5897 47.4634 65.5921Z" fill="#00A76F" stroke="#00A76F"/>
</svg>
