<svg width="40" height="40" viewBox="0 0 40 40" fill="none" xmlns="http://www.w3.org/2000/svg">
<path fill-rule="evenodd" clip-rule="evenodd" d="M23.2833 29.2165C23.5177 29.4505 23.8354 29.582 24.1667 29.582C24.4979 29.582 24.8156 29.4505 25.05 29.2165L33.3833 20.8831C33.6174 20.6488 33.7489 20.331 33.7489 19.9998C33.7489 19.6685 33.6174 19.3508 33.3833 19.1165L25.05 10.7831C24.9356 10.6603 24.7976 10.5618 24.6442 10.4935C24.4909 10.4252 24.3254 10.3884 24.1575 10.3855C23.9897 10.3825 23.823 10.4134 23.6673 10.4763C23.5117 10.5391 23.3703 10.6327 23.2516 10.7514C23.1329 10.8701 23.0393 11.0115 22.9765 11.1671C22.9136 11.3228 22.8827 11.4895 22.8857 11.6573C22.8886 11.8252 22.9254 11.9907 22.9937 12.144C23.062 12.2974 23.1605 12.4354 23.2833 12.5498L29.4833 18.7498H15.8333C14.645 18.7498 12.8333 18.3831 11.355 17.3181C9.94167 16.3015 8.75 14.5931 8.75 11.6665C8.75 11.3349 8.6183 11.017 8.38388 10.7826C8.14946 10.5482 7.83152 10.4165 7.5 10.4165C7.16848 10.4165 6.85054 10.5482 6.61612 10.7826C6.3817 11.017 6.25 11.3349 6.25 11.6665C6.25 15.4065 7.83667 17.8665 9.895 19.3481C11.8883 20.7831 14.245 21.2498 15.8333 21.2498H29.4833L23.2833 27.4498C23.0492 27.6842 22.9178 28.0019 22.9178 28.3331C22.9178 28.6644 23.0492 28.9821 23.2833 29.2165Z" fill="#307DA2"/>
</svg>
