<svg xmlns="http://www.w3.org/2000/svg" width="31" height="30" fill="none"
    xmlns:v="https://vecta.io/nano">
    <g clip-path="url(#A)" stroke="#f0f8ff" stroke-width="1.5" stroke-linejoin="round">
        <path
            d="M10.339 24.688l5.003-5a.94.94 0 0 1 1.326 0l2.427 2.425a.94.94 0 0 0 1.326 0l5.003-5"
            stroke-linecap="round" />
        <path
            d="M2.833.938h24.392s1.876 0 1.876 1.875v24.375s0 1.875-1.876 1.875H2.833s-1.876 0-1.876-1.875V2.813S.957.938 2.833.938z" />
        <path
            d="M4.71 10.625a5.62 5.62 0 0 0 .428 2.153c.283.683.697 1.303 1.22 1.825a5.63 5.63 0 0 0 3.98 1.648 5.63 5.63 0 0 0 3.98-1.648c.523-.522.937-1.142 1.22-1.825a5.62 5.62 0 0 0 0-4.305c-.283-.682-.698-1.303-1.22-1.825A5.63 5.63 0 0 0 10.339 5a5.63 5.63 0 0 0-3.98 1.648c-.523.522-.937 1.142-1.22 1.825a5.62 5.62 0 0 0-.428 2.153z" />
        <g stroke-linecap="round">
            <path d="M10.339 5v5.625l3.978 3.975m6.341-7.725h4.378m-4.378 4.375h4.378" />
        </g>
    </g>
    <defs>
        <clipPath id="A">
            <path fill="#fff" transform="translate(.019)" d="M0 0h30.021v30H0z" />
        </clipPath>
    </defs>
</svg>