<svg width="28" height="30" xmlns="http://www.w3.org/2000/svg" fill="none">
    <defs>
        <clipPath id="A">
            <path id="svg_1" d="m0.019,0l30.021,0l0,30l-30.021,0l0,-30z" fill="#fff" />
        </clipPath>
    </defs>
    <g>
        <title>Layer 1</title>
        <g stroke="#f0f8ff" id="svg_2" stroke-linejoin="round" stroke-width="1.5"
            clip-path="url(#A)">
            <path stroke="null" id="svg_3" stroke-linecap="round"
                d="m10.27293,22.13992l4.0711,-4.06866a0.76491,0.76491 0 0 1 1.07901,0l1.97493,1.9733a0.76491,0.76491 0 0 0 1.07901,0l4.0711,-4.06866" />
            <path stroke="null" id="svg_4"
                d="m4.16506,2.81379l19.84855,0s1.52656,0 1.52656,1.52575l0,19.83472s0,1.52575 -1.52656,1.52575l-19.84855,0s-1.52656,0 -1.52656,-1.52575l0,-19.83472s0,-1.52575 1.52656,-1.52575z" />
            <path stroke="null" id="svg_5"
                d="m5.69244,10.69641a4.57317,4.57317 0 0 0 0.34828,1.75197c0.23029,0.55578 0.56717,1.06029 0.99275,1.48506a4.58131,4.58131 0 0 0 3.23865,1.34103a4.58131,4.58131 0 0 0 3.23865,-1.34103c0.42558,-0.42477 0.76247,-0.92928 0.99275,-1.48506a4.57317,4.57317 0 0 0 0,-3.50312c-0.23029,-0.55497 -0.56799,-1.06029 -0.99275,-1.48506a4.58131,4.58131 0 0 0 -3.23784,-1.34103a4.58131,4.58131 0 0 0 -3.23865,1.34103c-0.42558,0.42477 -0.76247,0.92928 -0.99275,1.48506a4.57317,4.57317 0 0 0 -0.34828,1.75197l-0.00081,-0.00081z" />
            <g stroke="null" id="svg_6" stroke-linecap="round">
                <path stroke="null" id="svg_7"
                    d="m10.27293,6.11917l0,4.57724l3.23703,3.23459m5.15988,-6.28608l3.56252,0m-3.56252,3.56008l3.56252,0" />
            </g>
        </g>
    </g>
</svg>