<svg xmlns="http://www.w3.org/2000/svg" width="23" height="22" viewBox="0 0 23 22" fill="none"
  class="stroke-white" routerLinkActive="stroke-yellow">
  <path opacity="0.32"
    d="M19.5219 15.5561C19.2618 16.1567 18.6434 16.5 17.989 16.5H13.6869C13.7151 16.4216 13.7401 16.3413 13.7617 16.2592C14.0128 15.306 13.7484 14.3358 13.1424 13.655C13.3661 11.8334 13.5057 9.96716 13.591 8.49306C13.6333 7.7617 12.7373 7.51741 12.4146 8.17232C11.7641 9.49232 10.968 11.1795 10.2666 12.8709C9.40726 13.1522 8.70152 13.8579 8.45049 14.8111C8.29784 15.3908 8.33579 15.9767 8.52526 16.5H4.22324C3.56881 16.5 2.95043 16.1567 2.69036 15.5561C2.20723 14.4405 1.93945 13.2099 1.93945 11.9167C1.93945 6.85405 6.04351 2.75 11.1061 2.75C16.1687 2.75 20.2728 6.85405 20.2728 11.9167C20.2728 13.2099 20.005 14.4405 19.5219 15.5561Z"
    fill="white" />
  <path
    d="M13.5903 8.4929C13.6326 7.76154 12.7366 7.51725 12.4139 8.17216C11.7635 9.49216 10.9673 11.1793 10.2659 12.8708C9.40661 13.152 8.70087 13.8577 8.44984 14.8109C8.05682 16.3033 8.92724 17.8373 10.3939 18.2372C11.8606 18.6371 13.3681 17.7514 13.7611 16.259C14.0121 15.3058 13.7477 14.3356 13.1417 13.6548C13.3654 11.8332 13.505 9.96699 13.5903 8.4929Z"
    fill="white" />
  <g>
    <title>Layer 1</title>
    <path stroke="null" id="svg_1" />
  </g>
</svg>