<svg xmlns="http://www.w3.org/2000/svg" width="17" height="16" viewBox="0 0 17 16" fill="none">
  <path
    d="M8.10502 10.334C7.94925 10.3343 7.79829 10.2801 7.67835 10.1807L3.67835 6.84735C3.39484 6.61171 3.35604 6.19086 3.59168 5.90735C3.82732 5.62385 4.24818 5.58505 4.53168 5.82069L8.10502 8.80735L11.6783 5.92735C11.8161 5.81551 11.9927 5.76317 12.1691 5.78194C12.3456 5.80071 12.5072 5.88903 12.6183 6.02735C12.7418 6.16593 12.8019 6.34967 12.7841 6.53439C12.7664 6.71911 12.6725 6.88809 12.525 7.00069L8.52502 10.2207C8.40163 10.3044 8.25375 10.3443 8.10502 10.334Z"
    fill="white" />
</svg>
