<svg width="48" height="48" viewBox="0 0 48 48" fill="none" xmlns="http://www.w3.org/2000/svg">
<path d="M24.001 28.6683C23.6895 28.6689 23.3876 28.5604 23.1477 28.3616L15.1477 21.695C14.5807 21.2237 14.5031 20.382 14.9744 19.815C15.4457 19.2479 16.2874 19.1703 16.8544 19.6416L24.001 25.615L31.1477 19.855C31.4232 19.6313 31.7764 19.5266 32.1293 19.5641C32.4821 19.6017 32.8055 19.7783 33.0277 20.055C33.2746 20.3321 33.3947 20.6996 33.3593 21.069C33.3239 21.4385 33.1361 21.7764 32.841 22.0016L24.841 28.4416C24.5943 28.609 24.2985 28.6888 24.001 28.6683Z" fill="#637381"/>
</svg>
