<svg width="38" height="38" viewBox="0 0 38 38" fill="none" xmlns="http://www.w3.org/2000/svg">
<g clip-path="url(#clip0_281_3285)" filter="url(#filter0_d_281_3285)">
<path d="M19 0C10.7158 0 4 6.7158 4 15C4 22.0344 8.8432 27.9372 15.3766 29.5584V19.584H12.2836V15H15.3766V13.0248C15.3766 7.9194 17.6872 5.553 22.6996 5.553C23.65 5.553 25.2898 5.7396 25.9606 5.9256V10.0806C25.6066 10.0434 24.9916 10.0248 24.2278 10.0248C21.7684 10.0248 20.818 10.9566 20.818 13.3788V15H25.7176L24.8758 19.584H20.818V29.8902C28.2454 28.9932 34.0006 22.6692 34.0006 15C34 6.7158 27.2842 0 19 0Z" fill="#2749A3"/>
</g>
<defs>
<filter id="filter0_d_281_3285" x="0" y="0" width="38" height="38" filterUnits="userSpaceOnUse" color-interpolation-filters="sRGB">
<feFlood flood-opacity="0" result="BackgroundImageFix"/>
<feColorMatrix in="SourceAlpha" type="matrix" values="0 0 0 0 0 0 0 0 0 0 0 0 0 0 0 0 0 0 127 0" result="hardAlpha"/>
<feOffset dy="4"/>
<feGaussianBlur stdDeviation="2"/>
<feComposite in2="hardAlpha" operator="out"/>
<feColorMatrix type="matrix" values="0 0 0 0 0 0 0 0 0 0 0 0 0 0 0 0 0 0 0.25 0"/>
<feBlend mode="normal" in2="BackgroundImageFix" result="effect1_dropShadow_281_3285"/>
<feBlend mode="normal" in="SourceGraphic" in2="effect1_dropShadow_281_3285" result="shape"/>
</filter>
<clipPath id="clip0_281_3285">
<rect width="30" height="30" fill="white" transform="translate(4)"/>
</clipPath>
</defs>
</svg>
