<svg width="28" height="28" xmlns="http://www.w3.org/2000/svg" stroke-linejoin="round" stroke-linecap="round" stroke-width="1.5" stroke="#f0f8ff" fill="none">

 <g>
  <title>Layer 1</title>
  <path stroke="null" id="svg_1" d="m5.11748,16.3134l0,9.09507l6.61868,0l0,-6.61427c0,-0.43831 0.17462,-0.85897 0.48505,-1.1694s0.7311,-0.48416 1.17029,-0.48416l1.65445,0a1.65798,1.65798 0 0 1 1.17029,0.48416c0.31043,0.30955 0.48505,0.7311 0.48505,1.1694l0,6.61427l6.61868,0l0,-9.09507m-21.51226,-1.65357l11.24162,-11.23368a1.64916,1.64916 0 0 1 0.53532,-0.36158c0.20019,-0.08378 0.41626,-0.12699 0.63321,-0.12699a1.64916,1.64916 0 0 1 0.63409,0.12699c0.20107,0.08378 0.38275,0.20637 0.53532,0.36158l11.24162,11.23368m-7.44679,-7.44062l0,-3.21895l4.13701,0l0,7.35243"/>
 </g>
</svg>