<svg xmlns="http://www.w3.org/2000/svg" width="30" height="28" fill="none" stroke="#f0f8ff"
    stroke-width="1.5" stroke-linecap="round" stroke-linejoin="round"
    xmlns:v="https://vecta.io/nano">
    <path
        d="M4.706 16.425v10.313h7.505v-7.5c0-.497.198-.974.55-1.326s.829-.549 1.327-.549h1.876a1.88 1.88 0 0 1 1.327.549c.352.351.55.829.55 1.326v7.5h7.505V16.425M.953 14.55L13.7 1.812a1.87 1.87 0 0 1 .607-.41c.227-.095.472-.144.718-.144a1.87 1.87 0 0 1 .719.144c.228.095.434.234.607.41L29.098 14.55m-8.444-8.437v-3.65h4.691V10.8" />
</svg>