<svg width="64" height="64" viewBox="0 0 64 64" fill="none" xmlns="http://www.w3.org/2000/svg">
<g opacity="0.98">
<path opacity="0.32" fill-rule="evenodd" clip-rule="evenodd" d="M10.9958 5.98317C14.1812 5.65554 19.48 5.33334 28.0007 5.33334C36.5213 5.33334 41.8201 5.65554 45.0055 5.98317C47.7264 6.26302 49.7068 8.28132 50.0199 10.9985C50.3467 13.834 50.6673 18.1155 50.6673 24C50.6673 29.8845 50.3467 34.166 50.0199 37.0015C49.7068 39.7187 47.7268 41.7369 45.006 42.0168C42.1927 42.3061 37.7309 42.5913 30.8567 42.654C29.7912 42.6637 28.7675 43.0912 28.0193 43.8499L23.51 48.4225C21.5523 50.4079 18.1673 49.2552 17.8281 46.4876L17.4712 43.5769C17.392 42.9307 16.8532 42.4367 16.2031 42.4029C14.0419 42.2908 12.3341 42.1544 10.9979 42.0171C8.27706 41.7373 6.29458 39.7187 5.98141 37.0015C5.65461 34.166 5.33398 29.8845 5.33398 24C5.33398 18.1155 5.65461 13.834 5.98141 10.9985C6.29458 8.28132 8.27496 6.26302 10.9958 5.98317ZM18.6673 16C17.1945 16 16.0007 17.1939 16.0007 18.6667C16.0007 20.1395 17.1945 21.3333 18.6673 21.3333H37.334C38.8068 21.3333 40.0007 20.1395 40.0007 18.6667C40.0007 17.1939 38.8068 16 37.334 16H18.6673ZM18.6673 28C17.1945 28 16.0007 29.1939 16.0007 30.6667C16.0007 32.1395 17.1945 33.3333 18.6673 33.3333H29.334C30.8068 33.3333 32.0007 32.1395 32.0007 30.6667C32.0007 29.1939 30.8068 28 29.334 28H18.6673Z" fill="#86B6CD"/>
<path d="M15.998 18.6667C15.998 17.1939 17.1919 16 18.6647 16H37.3314C38.8042 16 39.998 17.1939 39.998 18.6667C39.998 20.1395 38.8042 21.3333 37.3314 21.3333H18.6647C17.1919 21.3333 15.998 20.1395 15.998 18.6667Z" fill="#86B6CD"/>
<path d="M15.998 30.6667C15.998 29.1939 17.1919 28 18.6647 28H29.3314C30.8042 28 31.998 29.1939 31.998 30.6667C31.998 32.1395 30.8042 33.3333 29.3314 33.3333H18.6647C17.1919 33.3333 15.998 32.1395 15.998 30.6667Z" fill="#86B6CD"/>
<path d="M26.7358 45.1488L28.0167 43.8499C28.7648 43.0912 29.7886 42.6637 30.854 42.654C37.7283 42.5913 42.1901 42.3061 45.0034 42.0168C47.7242 41.7369 49.7042 39.7187 50.0172 37.0015C50.2308 35.149 50.4416 32.6793 50.5622 29.5487C51.9136 29.6289 52.9778 29.7233 53.8067 29.8164C55.4747 30.0039 56.6978 31.2088 56.9052 32.8744C57.1222 34.6155 57.3314 37.332 57.3314 41.3333C57.3314 45.3347 57.1222 48.0512 56.9052 49.7923C56.6978 51.4579 55.473 52.6631 53.805 52.8504C52.69 52.9757 51.1495 53.1031 49.0571 53.1955C48.4383 53.2228 47.9134 53.6672 47.7935 54.2748L47.3383 56.5839C47.0396 58.0983 45.2108 58.7179 44.0532 57.6969L40.1905 54.2905C39.475 53.6596 38.554 53.3071 37.6003 53.2844C34.0938 53.2012 31.7364 53.024 30.1932 52.8507C28.5252 52.6633 27.2983 51.4579 27.0908 49.7923C26.9515 48.674 26.8154 47.1535 26.7358 45.1488Z" fill="#86B6CD"/>
</g>
</svg>
