<svg width="28" height="29" viewBox="0 0 28 29" fill="none" xmlns="http://www.w3.org/2000/svg">
<path opacity="0.5" d="M20.4687 22.9583C20.4689 23.1436 20.4161 23.3245 20.3176 23.4767C20.219 23.6288 20.0794 23.7448 19.9176 23.809C19.7557 23.8733 19.5795 23.8827 19.4125 23.836C19.2455 23.7894 19.0959 23.6888 18.9837 23.548L12.2338 15.0897C12.1027 14.9254 12.0307 14.7163 12.0307 14.5C12.0307 14.2837 12.1027 14.0746 12.2338 13.9103L18.9837 5.45199C19.0959 5.31115 19.2455 5.21062 19.4125 5.16395C19.5795 5.11728 19.7557 5.1267 19.9176 5.19096C20.0794 5.25522 20.219 5.37123 20.3176 5.52333C20.4161 5.67544 20.4689 5.85634 20.4687 6.04166V22.9583Z" fill="#307DA2"/>
<path fill-rule="evenodd" clip-rule="evenodd" d="M15.6748 23.6471C15.7589 23.5696 15.8281 23.4751 15.8782 23.3689C15.9283 23.2627 15.9585 23.1469 15.967 23.0282C15.9754 22.9094 15.962 22.7901 15.9275 22.6769C15.893 22.5638 15.8381 22.459 15.7659 22.3687L9.48725 14.5L15.7659 6.63134C15.8389 6.54111 15.8945 6.43626 15.9296 6.32283C15.9647 6.2094 15.9786 6.08964 15.9704 5.97044C15.9622 5.85123 15.9322 5.73495 15.882 5.62827C15.8318 5.52159 15.7624 5.42663 15.6779 5.34886C15.5934 5.27108 15.4954 5.21203 15.3896 5.1751C15.2837 5.13818 15.1722 5.1241 15.0612 5.13369C14.9503 5.14328 14.8422 5.17634 14.7433 5.23097C14.6443 5.2856 14.5563 5.36072 14.4845 5.45201L7.7345 13.9103C7.60348 14.0746 7.53147 14.2837 7.53147 14.5C7.53147 14.7163 7.60348 14.9254 7.7345 15.0897L14.4845 23.548C14.5566 23.6385 14.6445 23.7129 14.7434 23.7668C14.8422 23.8208 14.95 23.8533 15.0605 23.8625C15.171 23.8717 15.2822 23.8574 15.3876 23.8205C15.493 23.7835 15.5906 23.7246 15.6748 23.6471Z" fill="#307DA2"/>
</svg>
