<svg width="48" height="43" viewBox="0 0 48 43" fill="none" xmlns="http://www.w3.org/2000/svg">
<path d="M42.0699 12.5417C42.0884 12.4168 42.0884 12.2903 42.0699 12.1654C42.0528 12.0602 42.0199 11.9577 41.9719 11.8608C41.9202 11.7733 41.8613 11.6894 41.7957 11.61C41.7212 11.4967 41.6288 11.394 41.5215 11.3054L41.2865 11.18C41.1735 11.1029 41.0479 11.0424 40.9144 11.0008H40.5228C40.4034 10.8951 40.2641 10.8101 40.1115 10.75H30.3199C29.2383 10.75 28.3615 11.5522 28.3615 12.5417C28.3615 13.5312 29.2383 14.3333 30.3199 14.3333H35.8619L28.0286 22.7721L19.5686 18.1675C18.7408 17.717 17.6779 17.8842 17.0619 18.5617L7.27028 29.3117C6.93724 29.6773 6.77692 30.1492 6.82468 30.6231C6.87244 31.0971 7.12437 31.5341 7.52486 31.8379C7.87719 32.105 8.32062 32.2508 8.77819 32.25C9.36066 32.2509 9.91333 32.0145 10.2861 31.605L19.0007 22.0375L27.3628 26.6242C28.1816 27.0685 29.231 26.9097 29.8499 26.2479L38.1532 17.3792V21.5C38.1532 22.4895 39.03 23.2917 40.1115 23.2917C41.1931 23.2917 42.0699 22.4895 42.0699 21.5V12.5417Z" fill="#F3C762"/>
</svg>
