<svg width="64" height="64" viewBox="0 0 64 64" fill="none" xmlns="http://www.w3.org/2000/svg">
<g opacity="0.98">
<path d="M37.5728 0C38.103 0 38.6114 0.210507 38.9865 0.585255L58.6145 20.1985C58.9899 20.5736 59.2008 21.0825 59.2008 21.6132V56.5333C59.2008 60.6571 55.791 64 51.5848 64H12.4168C8.21058 64 4.80078 60.6571 4.80078 56.5333V7.46667C4.80078 3.34294 8.21058 0 12.4168 0H37.5728Z" fill="#86B6CD"/>
<g filter="url(#filter0_d_1241_52152)">
<path d="M56.7544 19.9323C57.0674 20.2478 56.8439 20.7844 56.3994 20.7844H46.3996C42.2759 20.7844 38.5558 17.1572 38.5558 13.1365V2.79848C38.5558 2.35204 39.0964 2.12941 39.4108 2.44637L56.7544 19.9323Z" fill="white" fill-opacity="0.24" shape-rendering="crispEdges"/>
</g>
<path d="M25.7067 25.5844C24.3409 25.5844 23.2178 26.7075 23.2178 28.0733C23.2178 29.7711 24.1611 31.8788 25.1544 33.8599C24.378 36.2906 23.4969 38.8953 22.37 41.0933C20.0635 41.9983 18.0067 42.6709 16.77 43.6677C16.7507 43.6874 16.7325 43.7082 16.7156 43.7299C16.2637 44.1921 16 44.8213 16 45.4955C16 46.8612 17.1232 47.9844 18.4889 47.9844C19.1549 47.9844 19.7977 47.7359 20.2622 47.261C20.2783 47.2487 20.2939 47.2357 20.3089 47.2222C21.2192 46.1352 22.2925 44.1634 23.2489 42.361C25.453 41.494 27.7631 40.6118 29.9922 40.0822C31.6195 41.3936 33.9737 42.2599 35.9111 42.2599C37.2768 42.2599 38.4 41.1368 38.4 39.771C38.4 38.4053 37.2768 37.2822 35.9111 37.2822C34.3574 37.2822 32.0996 37.8368 30.3733 38.4177C28.9741 37.1041 27.6885 35.4635 26.7644 33.7199C27.4246 31.6861 28.1956 29.6512 28.1956 28.0733C28.1956 26.7075 27.0724 25.5844 25.7067 25.5844ZM25.7067 27.0777C26.2653 27.0777 26.7022 27.5146 26.7022 28.0733C26.7022 28.8203 26.3022 30.1957 25.8389 31.6744C25.2198 30.2359 24.7111 28.8557 24.7111 28.0733C24.7111 27.5146 25.148 27.0777 25.7067 27.0777ZM26.1344 35.5944C26.883 36.7851 27.7597 37.8931 28.7167 38.8766C27.2407 39.2802 25.7992 39.7973 24.3767 40.3388C25.0637 38.7881 25.6138 37.1789 26.1344 35.5944ZM35.9111 38.7755C36.4698 38.7755 36.9067 39.2124 36.9067 39.771C36.9067 40.3297 36.4698 40.7666 35.9111 40.7666C34.7895 40.7666 33.1955 40.2603 31.9211 39.5533C33.3838 39.1397 34.9799 38.7755 35.9111 38.7755ZM21.0556 43.2322C20.3557 44.4815 19.6599 45.6476 19.1733 46.2344C19.0071 46.3933 18.786 46.491 18.4889 46.491C17.9302 46.491 17.4933 46.0541 17.4933 45.4955C17.4933 45.2326 17.6051 44.9715 17.7578 44.8033C18.3416 44.3514 19.6119 43.81 21.0556 43.2322Z" fill="white"/>
</g>
<defs>
<filter id="filter0_d_1241_52152" x="36.5566" y="2.29749" width="22.3438" height="22.4869" filterUnits="userSpaceOnUse" color-interpolation-filters="sRGB">
<feFlood flood-opacity="0" result="BackgroundImageFix"/>
<feColorMatrix in="SourceAlpha" type="matrix" values="0 0 0 0 0 0 0 0 0 0 0 0 0 0 0 0 0 0 127 0" result="hardAlpha"/>
<feOffset dy="2"/>
<feGaussianBlur stdDeviation="1"/>
<feComposite in2="hardAlpha" operator="out"/>
<feColorMatrix type="matrix" values="0 0 0 0 0 0 0 0 0 0 0 0 0 0 0 0 0 0 0.04 0"/>
<feBlend mode="normal" in2="BackgroundImageFix" result="effect1_dropShadow_1241_52152"/>
<feBlend mode="normal" in="SourceGraphic" in2="effect1_dropShadow_1241_52152" result="shape"/>
</filter>
</defs>
</svg>
