<svg width="22" height="22" viewBox="0 0 22 22" fill="none" xmlns="http://www.w3.org/2000/svg">
<path fill-rule="evenodd" clip-rule="evenodd" d="M11.0007 1.83337C15.3218 1.83337 17.4824 1.83337 18.8244 3.17537C19.2864 3.63737 19.5898 4.19654 19.7887 4.90696L4.90757 19.7881C4.19715 19.5892 3.63798 19.2858 3.17598 18.8238C1.83398 17.4827 1.83398 15.3212 1.83398 11C1.83398 6.67887 1.83398 4.51829 3.17598 3.17537C4.51982 1.83337 6.67948 1.83337 11.0007 1.83337ZM5.04232 8.02729C5.04232 9.66354 6.06623 11.573 7.66398 12.2559C8.03615 12.4145 8.46515 12.4145 8.83732 12.2559C10.4351 11.573 11.459 9.66354 11.459 8.02729C11.459 6.37821 10.0226 5.04171 8.25065 5.04171C6.47873 5.04171 5.04232 6.37821 5.04232 8.02729Z" fill="white"/>
<path d="M9.625 8.25C9.625 8.61467 9.48013 8.96441 9.22227 9.22227C8.96441 9.48013 8.61467 9.625 8.25 9.625C7.88533 9.625 7.53559 9.48013 7.27773 9.22227C7.01987 8.96441 6.875 8.61467 6.875 8.25C6.875 7.88533 7.01987 7.53559 7.27773 7.27773C7.53559 7.01987 7.88533 6.875 8.25 6.875C8.61467 6.875 8.96441 7.01987 9.22227 7.27773C9.48013 7.53559 9.625 7.88533 9.625 8.25Z" fill="white"/>
<path opacity="0.5" d="M20.0666 6.57434C20.1675 7.73026 20.1675 9.17217 20.1675 11C20.1675 14.7895 20.1675 16.9171 19.2627 18.2884L13.8058 12.8333L20.0666 6.57434ZM18.2901 19.261L12.8351 13.8059L6.57422 20.0649C7.73105 20.1667 9.17297 20.1667 11.0017 20.1667C14.7912 20.1667 16.9188 20.1667 18.2901 19.261Z" fill="white"/>
</svg>
