<svg width="28" height="30.000000000000004" xmlns="http://www.w3.org/2000/svg" fill="none">

 <g>
  <title>Layer 1</title>
  <g stroke="null" id="svg_10">
   <path stroke="#F0F8FF" id="svg_1" stroke-linejoin="round" stroke-linecap="round" stroke-width="1.5" d="m13.75217,2.19532c0.6765,0 1.34632,0.13316 1.97138,0.39186c0.62488,0.2587 1.19284,0.6379 1.67121,1.11592c0.47827,0.47802 0.8578,1.04552 1.1167,1.67008c0.2589,0.62457 0.39215,1.29398 0.39215,1.97001c0,2.19757 -3.07719,6.37879 -4.47494,8.16567c-0.08026,0.10268 -0.18294,0.18578 -0.30018,0.24289c-0.11714,0.0572 -0.246,0.08676 -0.37632,0.08676c-0.13041,0 -0.25918,-0.02956 -0.37641,-0.08676c-0.11723,-0.05711 -0.21983,-0.14021 -0.30018,-0.24289c-1.39775,-1.78579 -4.4749,-5.9681 -4.4749,-8.16567c0,-1.3653 0.54275,-2.67469 1.50881,-3.64009c0.96615,-0.96541 2.27632,-1.50778 3.64268,-1.50778z"/>
   <path stroke="#F0F8FF" id="svg_2" stroke-linejoin="round" stroke-linecap="round" stroke-width="1.5" d="m6.88936,12.52667c-0.28905,0.06031 -0.55765,0.1942 -0.77983,0.38858c-0.22219,0.19438 -0.39047,0.44267 -0.48857,0.72107l-3.93914,12.01171c-0.09133,0.25872 -0.11925,0.53556 -0.08141,0.80728c0.03785,0.27181 0.14034,0.53044 0.29889,0.75447c0.15855,0.22394 0.36853,0.4068 0.61235,0.53282c0.2438,0.1262 0.51434,0.1921 0.78888,0.19219l20.90344,0c0.27464,0 0.54535,-0.06589 0.78934,-0.19219c0.2438,-0.1262 0.45402,-0.30896 0.61253,-0.53318c0.1586,-0.22413 0.26101,-0.48303 0.29881,-0.75493c0.03771,-0.27181 0.00961,-0.54883 -0.08191,-0.80764l-3.9392,-12.01171c-0.09875,-0.27977 -0.26851,-0.52934 -0.49273,-0.724c-0.22413,-0.19466 -0.49493,-0.32791 -0.78595,-0.38675"/>
   <path stroke="#F0F8FF" id="svg_3" stroke-linejoin="round" stroke-linecap="round" stroke-width="1.5" d="m8.60068,27.93359l1.71719,-10.29465"/>
   <path stroke="#F0F8FF" id="svg_4" stroke-linejoin="round" stroke-linecap="round" stroke-width="1.5" d="m18.90389,27.93359l-1.71715,-10.29465"/>
   <path stroke="#F0F8FF" id="svg_5" stroke-linejoin="round" stroke-linecap="round" stroke-width="1.5" d="m2.65292,22.78681l22.23247,0"/>
   <path stroke="#F0F8FF" id="svg_6" stroke-linejoin="round" stroke-linecap="round" stroke-width="1.5" d="m4.3081,17.63894l6.01004,0"/>
   <path stroke="#F0F8FF" id="svg_7" stroke-linejoin="round" stroke-linecap="round" stroke-width="1.5" d="m17.18674,17.63894l6.00997,0"/>
   <path stroke="#F0F8FF" id="svg_8" stroke-width="1.5" d="m13.76855,7.77218c-0.23712,0 -0.42931,-0.19206 -0.42931,-0.42899c0,-0.23693 0.19219,-0.42899 0.42931,-0.42899"/>
   <path stroke="#F0F8FF" id="svg_9" stroke-width="1.5" d="m13.7691,7.77218c0.23712,0 0.42931,-0.19206 0.42931,-0.42899c0,-0.23693 -0.19219,-0.42899 -0.42931,-0.42899"/>
  </g>
 </g>
</svg>