<svg width="22" height="22" viewBox="0 0 22 22" fill="none" xmlns="http://www.w3.org/2000/svg">
  <path fill-rule="evenodd" clip-rule="evenodd"
    d="M11.0007 1.83325C15.3218 1.83325 17.4824 1.83325 18.8244 3.17525C19.2864 3.63725 19.5898 4.19642 19.7887 4.90684L4.90757 19.788C4.19715 19.5891 3.63798 19.2857 3.17598 18.8237C1.83398 17.4826 1.83398 15.3211 1.83398 10.9999C1.83398 6.67875 1.83398 4.51817 3.17598 3.17525C4.51982 1.83325 6.67948 1.83325 11.0007 1.83325ZM5.04232 8.02717C5.04232 9.66342 6.06623 11.5728 7.66398 12.2558C8.03615 12.4143 8.46515 12.4143 8.83732 12.2558C10.4351 11.5728 11.459 9.66342 11.459 8.02717C11.459 6.37809 10.0226 5.04159 8.25065 5.04159C6.47873 5.04159 5.04232 6.37809 5.04232 8.02717Z"
    fill="white" />
  <path
    d="M9.625 8.25C9.625 8.61467 9.48013 8.96441 9.22227 9.22227C8.96441 9.48013 8.61467 9.625 8.25 9.625C7.88533 9.625 7.53559 9.48013 7.27773 9.22227C7.01987 8.96441 6.875 8.61467 6.875 8.25C6.875 7.88533 7.01987 7.53559 7.27773 7.27773C7.53559 7.01987 7.88533 6.875 8.25 6.875C8.61467 6.875 8.96441 7.01987 9.22227 7.27773C9.48013 7.53559 9.625 7.88533 9.625 8.25Z"
    fill="white" />
  <path opacity="0.5"
    d="M20.0666 6.57422C20.1675 7.73014 20.1675 9.17205 20.1675 10.9999C20.1675 14.7894 20.1675 16.917 19.2627 18.2883L13.8058 12.8332L20.0666 6.57422ZM18.2901 19.2609L12.8351 13.8058L6.57422 20.0648C7.73105 20.1666 9.17297 20.1666 11.0017 20.1666C14.7912 20.1666 16.9188 20.1666 18.2901 19.2609Z"
    fill="white" />
</svg>