<svg xmlns="http://www.w3.org/2000/svg" width="37" height="38" fill="none"
    xmlns:v="https://vecta.io/nano">
    <style><![CDATA[.B{stroke:#f0f8ff}.C{stroke-width:1.5}.D{stroke-linejoin:round}.E{stroke-linecap:round}]]></style>
    <g filter="url(#A)" class="B C">
        <path
            d="M18.18.938a5.63 5.63 0 0 1 3.98 1.648 5.63 5.63 0 0 1 1.22 1.825c.283.682.428 1.414.428 2.153 0 2.401-3.362 6.97-4.89 8.923-.088.112-.2.203-.328.265a.94.94 0 0 1-.823 0 .94.94 0 0 1-.328-.265c-1.527-1.951-4.89-6.521-4.89-8.922 0-1.492.593-2.923 1.649-3.977A5.63 5.63 0 0 1 18.18.938z"
            class="D" />
        <path
            d="M10.681 12.226c-.316.066-.609.212-.852.425s-.427.484-.534.788L4.991 26.564c-.1.283-.13.585-.089.882s.153.58.327.824.403.445.669.582.562.21.862.21H29.6c.3 0 .596-.072.862-.21s.496-.338.669-.583.285-.528.326-.825.011-.6-.09-.883l-4.304-13.125c-.108-.306-.293-.578-.538-.791s-.541-.358-.859-.423"
            class="D E" />
        <path d="M12.551 29.061l1.876-11.249" class="D E" />
        <path d="M23.809 29.061l-1.876-11.249" class="D E" />
        <path d="M6.052 23.438h24.293" class="D E" />
        <path d="M7.86 17.813h6.567" class="D E" />
        <path d="M21.933 17.813H28.5" class="D E" />
        <path d="M18.198 7.031a.47.47 0 0 1-.469-.469.47.47 0 0 1 .469-.469" />
        <path d="M18.198 7.031a.47.47 0 0 0 .469-.469.47.47 0 0 0-.469-.469" />
    </g>
    <defs>
        <filter id="A" x="-.993" y="0" width="38.021" height="38" filterUnits="userSpaceOnUse"
            color-interpolation-filters="sRGB">
            <feFlood flood-opacity="0" result="A" />
            <feColorMatrix in="SourceAlpha" values="0 0 0 0 0 0 0 0 0 0 0 0 0 0 0 0 0 0 127 0"
                result="B" />
            <feOffset dy="4" />
            <feGaussianBlur stdDeviation="2" />
            <feComposite in2="B" operator="out" />
            <feColorMatrix values="0 0 0 0 0 0 0 0 0 0 0 0 0 0 0 0 0 0 0.25 0" />
            <feBlend in2="A" />
            <feBlend in="SourceGraphic" />
        </filter>
    </defs>
</svg>