<svg width="28.000000000000004" height="30" xmlns="http://www.w3.org/2000/svg" fill="none">
 <defs>
  <clipPath id="A">
   <path id="svg_1" d="m0.018,0l30.021,0l0,30l-30.021,0l0,-30z" fill="#fff"/>
  </clipPath>
 </defs>
 <g>
  <title>Layer 1</title>
  <g stroke="#f0f8ff" id="svg_2" stroke-width="1.5" clip-path="url(#A)">
   <g stroke="null" id="svg_3" stroke-linejoin="round">
    <path stroke="null" id="svg_4" d="m22.83612,3.23129l-18.07941,0a1.95318,1.95318 0 0 0 -1.95474,1.95318l0,13.57226a1.95318,1.95318 0 0 0 1.95474,1.95318l18.07941,0a1.95318,1.95318 0 0 0 1.95474,-1.95318l0,-13.57226a1.95318,1.95318 0 0 0 -1.95474,-1.95318z"/>
    <g stroke="null" id="svg_5" stroke-linecap="round">
     <path stroke="null" id="svg_6" d="m11.79753,20.70913l-1.00003,3.99542m0.00078,-0.00078l5.49703,0m-0.49845,-3.99464l0.99847,3.99542"/>
     <path stroke="null" id="svg_7" d="m18.29458,24.70377l-8.99556,0m-6.49706,-7.50177l21.9889,0m-18.87631,-9.92137l2.21412,0m2.21569,0l1.32894,0"/>
     <path stroke="null" id="svg_8" d="m5.91455,10.26665l1.32816,0m2.21569,0l2.21412,0m-5.75797,2.98524l5.75797,0m3.12509,-10.02059l0,13.9707m0,-3.21806l2.9829,-2.90633a2.86727,2.86727 0 0 1 3.43447,-0.08203l3.57744,2.98837"/>
    </g>
   </g>
   <path stroke="null" id="svg_9" d="m18.28911,7.76892c-0.26954,0 -0.48829,-0.21876 -0.48829,-0.48829s0.21876,-0.48829 0.48829,-0.48829m-0.00078,0.97659c0.26954,0 0.48829,-0.21876 0.48829,-0.48829s-0.21876,-0.48829 -0.48829,-0.48829"/>
  </g>
 </g>
</svg>