<svg width="22" height="22" viewBox="0 0 22 22" fill="none" xmlns="http://www.w3.org/2000/svg">
  <path opacity="0.32"
    d="M14.0065 4.125H4.32685C3.45739 4.125 2.75 4.63885 2.75 5.27122C2.75 5.90281 3.45739 6.41667 4.32685 6.41667H14.0065C14.8759 6.41667 15.5833 5.90281 15.5833 5.27122C15.5833 4.63883 14.876 4.125 14.0065 4.125Z"
    fill="white" />
  <path
    d="M17.6732 9.85425H7.99352C7.12405 9.85425 6.41667 10.3681 6.41667 11.0005C6.41667 11.6321 7.12405 12.1459 7.99352 12.1459H17.6732C18.5426 12.1459 19.25 11.6321 19.25 11.0005C19.25 10.3681 18.5426 9.85425 17.6732 9.85425Z"
    fill="white" />
  <path
    d="M14.0065 15.5834H4.32685C3.45739 15.5834 2.75 16.0973 2.75 16.7296C2.75 17.3612 3.45739 17.8751 4.32685 17.8751H14.0065C14.8759 17.8751 15.5833 17.3612 15.5833 16.7296C15.5833 16.0973 14.876 15.5834 14.0065 15.5834Z"
    fill="white" />
</svg>