<svg width="22" height="22" viewBox="0 0 22 22" fill="none" xmlns="http://www.w3.org/2000/svg">
<path d="M17.008 6.79818C17.008 5.9061 16.284 5.1821 15.3919 5.1821H6.98825C6.09617 5.1821 5.37216 5.9061 5.37216 6.79818V15.2018C5.37216 16.0939 6.09617 16.8179 6.98825 16.8179H8.92755C9.18471 16.8179 9.43135 16.9201 9.61319 17.1019C9.79504 17.2838 9.8972 17.5304 9.8972 17.7876C9.8972 18.0447 9.79504 18.2914 9.61319 18.4732C9.43135 18.655 9.18471 18.7572 8.92755 18.7572H6.98825C6.0453 18.7572 5.14097 18.3826 4.47421 17.7159C3.80744 17.0491 3.43286 16.1448 3.43286 15.2018V6.79818C3.43286 5.85524 3.80744 4.95091 4.47421 4.28415C5.14097 3.61738 6.0453 3.2428 6.98825 3.2428H15.3919C16.3348 3.2428 17.2392 3.61738 17.9059 4.28415C18.5727 4.95091 18.9473 5.85524 18.9473 6.79818V8.73748C18.9473 8.99465 18.8451 9.24128 18.6633 9.42313C18.4814 9.60497 18.2348 9.70713 17.9776 9.70713C17.7204 9.70713 17.4738 9.60497 17.292 9.42313C17.1101 9.24128 17.008 8.99465 17.008 8.73748V6.79818ZM17.9776 11C18.2348 11 18.4814 11.1022 18.6633 11.284C18.8451 11.4658 18.9473 11.7125 18.9473 11.9697V17.7876C18.9473 18.0447 18.8451 18.2914 18.6633 18.4732C18.4814 18.655 18.2348 18.7572 17.9776 18.7572H12.1597C11.9025 18.7572 11.6559 18.655 11.4741 18.4732C11.2922 18.2914 11.1901 18.0447 11.1901 17.7876C11.1901 17.5304 11.2922 17.2838 11.4741 17.1019C11.6559 16.9201 11.9025 16.8179 12.1597 16.8179H15.6362L11.4732 12.6549C11.3806 12.5654 11.3068 12.4583 11.2561 12.34C11.2053 12.2217 11.1786 12.0944 11.1775 11.9657C11.1765 11.837 11.2011 11.7093 11.2499 11.5901C11.2987 11.471 11.3708 11.3628 11.4618 11.2718C11.5529 11.1808 11.6612 11.1088 11.7804 11.0601C11.8996 11.0114 12.0273 10.9869 12.156 10.9881C12.2848 10.9893 12.412 11.0161 12.5303 11.067C12.6486 11.1179 12.7555 11.1918 12.8449 11.2844L17.008 15.4475V11.9697C17.008 11.7125 17.1101 11.4658 17.292 11.284C17.4738 11.1022 17.7204 11 17.9776 11Z" fill="#E0E0E0"/>
</svg>
