<svg width="24" height="24" viewBox="0 0 24 24" fill="none" xmlns="http://www.w3.org/2000/svg">
<path d="M11.399 18.1511L18.795 10.7551C17.5507 10.2356 16.4206 9.47653 15.469 8.52111C14.5132 7.56932 13.7538 6.43888 13.234 5.19411L5.83804 12.5901C5.26104 13.1671 4.97204 13.4561 4.72404 13.7741C4.43115 14.1494 4.18 14.5554 3.97504 14.9851C3.80204 15.3491 3.67304 15.7371 3.41504 16.5111L2.05304 20.5941C1.99036 20.7811 1.98106 20.9818 2.02619 21.1737C2.07132 21.3657 2.16909 21.5412 2.30851 21.6806C2.44794 21.8201 2.62349 21.9178 2.81543 21.963C3.00737 22.0081 3.2081 21.9988 3.39504 21.9361L7.47804 20.5741C8.25304 20.3161 8.64004 20.1871 9.00404 20.0141C9.43404 19.8091 9.84004 19.5581 10.215 19.2651C10.533 19.0171 10.822 18.7281 11.399 18.1511ZM20.847 8.70311C21.5845 7.96567 21.9988 6.9655 21.9988 5.92261C21.9988 4.87972 21.5845 3.87954 20.847 3.14211C20.1096 2.40467 19.1094 1.99039 18.0665 1.99039C17.0237 1.99039 16.0235 2.40467 15.286 3.14211L14.399 4.02911L14.437 4.14011C14.8742 5.39083 15.5895 6.52601 16.529 7.46011C17.4911 8.42781 18.666 9.15722 19.96 9.59011L20.847 8.70311Z" fill="white"/>
</svg>
