<svg width="24" height="25" viewBox="0 0 24 25" fill="none" xmlns="http://www.w3.org/2000/svg">
<path d="M22 8.77463V16.9166C22.0001 17.7468 21.6824 18.5455 21.1123 19.1489C20.5422 19.7523 19.7628 20.1146 18.934 20.1616L18.75 20.1666H5.25C4.41986 20.1667 3.62117 19.8491 3.01777 19.279C2.41437 18.7088 2.052 17.9294 2.005 17.1006L2 16.9166V8.77463L11.652 13.8306C11.7594 13.8869 11.8788 13.9162 12 13.9162C12.1212 13.9162 12.2406 13.8869 12.348 13.8306L22 8.77463ZM5.25 4.16663H18.75C19.5556 4.16653 20.3325 4.46562 20.93 5.00589C21.5276 5.54616 21.9032 6.28911 21.984 7.09063L12 12.3206L2.016 7.09063C2.09352 6.32094 2.44305 5.60414 3.00175 5.06909C3.56045 4.53403 4.29168 4.21581 5.064 4.17163L5.25 4.16663Z" fill="#2749A3"/>
</svg>
