<svg width="24" height="25" viewBox="0 0 24 25" fill="none" xmlns="http://www.w3.org/2000/svg">
<path d="M22 9.44131V17.5833C22.0001 18.4135 21.6824 19.2121 21.1123 19.8155C20.5422 20.4189 19.7628 20.7813 18.934 20.8283L18.75 20.8333H5.25C4.41986 20.8334 3.62117 20.5158 3.01777 19.9456C2.41437 19.3755 2.052 18.5961 2.005 17.7673L2 17.5833V9.44131L11.652 14.4973C11.7594 14.5536 11.8788 14.5829 12 14.5829C12.1212 14.5829 12.2406 14.5536 12.348 14.4973L22 9.44131ZM5.25 4.83331H18.75C19.5556 4.83322 20.3325 5.13231 20.93 5.67258C21.5276 6.21285 21.9032 6.95579 21.984 7.75731L12 12.9873L2.016 7.75731C2.09352 6.98763 2.44305 6.27083 3.00175 5.73578C3.56045 5.20072 4.29168 4.8825 5.064 4.83831L5.25 4.83331Z" fill="#2749A3"/>
</svg>
