<svg width="24" height="25" viewBox="0 0 24 25" fill="none" xmlns="http://www.w3.org/2000/svg">
<path opacity="0.32" fill-rule="evenodd" clip-rule="evenodd" d="M2.12411 8.16663H21.8758C21.9467 9.36771 22 10.9933 22 13.1666C22 16.6509 21.8631 18.7272 21.7362 19.9038C21.6422 20.7755 21.0518 21.4476 20.1903 21.6108C18.8494 21.8649 16.3428 22.1666 12 22.1666C7.65725 22.1666 5.15055 21.8649 3.80967 21.6108C2.94826 21.4476 2.35785 20.7755 2.26379 19.9038C2.13682 18.7272 2 16.6509 2 13.1666C2 10.9933 2.05324 9.36771 2.12411 8.16663ZM6.5 12.8481C6.5 12.2472 6.93315 11.7748 7.5337 11.7534C8.3136 11.7256 9.6669 11.6941 12 11.6735C14.5069 11.6514 15.8826 11.6863 16.6312 11.7265C17.1554 11.7547 17.5 12.1612 17.5 12.6862V13.0773C17.5 13.6392 17.1157 14.0759 16.5543 14.1006C15.7898 14.1341 14.4235 14.1666 12 14.1666C9.5765 14.1666 8.21025 14.1341 7.44565 14.1006C6.88435 14.0759 6.5 13.6392 6.5 13.0773V12.8481ZM6.5 17.2557C6.5 16.6942 6.8844 16.2459 7.44515 16.2169C7.97275 16.1897 8.7795 16.1667 10 16.1667C11.2205 16.1667 12.0272 16.1897 12.5548 16.2169C13.1156 16.2459 13.5 16.6942 13.5 17.2557V17.5777C13.5 18.1392 13.1156 18.5874 12.5548 18.6164C12.0272 18.6437 11.2205 18.6667 10 18.6667C8.7795 18.6667 7.97275 18.6437 7.44515 18.6164C6.8844 18.5874 6.5 18.1392 6.5 17.5777V17.2557Z" fill="#1877F2"/>
<path d="M17.916 2.19788C18.2286 2.22365 18.4434 2.4526 18.4646 2.76551C18.4841 3.05298 18.501 3.4958 18.501 4.16663C18.501 4.27439 18.5005 4.37627 18.4997 4.47256C19.2009 4.55295 19.7571 4.64019 20.1912 4.72244C21.0526 4.88564 21.643 5.55778 21.7371 6.42948C21.7849 6.87213 21.834 7.44218 21.8768 8.16663H2.125C2.16775 7.44218 2.21691 6.87213 2.26468 6.42948C2.35873 5.55778 2.94915 4.88565 3.81056 4.72244C4.24467 4.64018 4.80098 4.55293 5.50222 4.47254C5.50142 4.37625 5.50097 4.27438 5.50097 4.16663C5.50097 3.4958 5.51787 3.05298 5.53737 2.76551C5.55857 2.4526 5.77337 2.22365 6.08592 2.19788C6.29862 2.18035 6.59477 2.16663 7.00097 2.16663C7.40717 2.16663 7.70333 2.18035 7.91603 2.19788C8.22858 2.22365 8.44337 2.4526 8.46457 2.76551C8.48407 3.05298 8.50097 3.4958 8.50097 4.16663C8.50097 4.19202 8.50098 4.21709 8.50093 4.24184C9.50743 4.19507 10.6676 4.16663 12.0009 4.16663C13.3342 4.16663 14.4945 4.19507 15.501 4.24185L15.501 4.16663C15.501 3.4958 15.5179 3.05298 15.5374 2.76551C15.5586 2.4526 15.7734 2.22365 16.0859 2.19788C16.2986 2.18035 16.5948 2.16663 17.001 2.16663C17.4072 2.16663 17.7033 2.18035 17.916 2.19788Z" fill="#2749A3"/>
<path fill-rule="evenodd" clip-rule="evenodd" d="M7.53467 11.7534C6.93412 11.7748 6.50097 12.2472 6.50097 12.8481V13.0773C6.50097 13.6392 6.88532 14.0759 7.44662 14.1006C8.21122 14.1341 9.57747 14.1666 12.001 14.1666C14.4245 14.1666 15.7907 14.1341 16.5553 14.1006C17.1166 14.0759 17.501 13.6392 17.501 13.0773V12.6862C17.501 12.1612 17.1564 11.7547 16.6322 11.7265C15.8835 11.6863 14.5079 11.6514 12.001 11.6735C9.66787 11.6941 8.31457 11.7256 7.53467 11.7534ZM7.44613 16.2169C6.88538 16.2459 6.50097 16.6942 6.50097 17.2557V17.5777C6.50097 18.1392 6.88538 18.5874 7.44613 18.6164C7.97372 18.6437 8.78047 18.6667 10.001 18.6667C11.2215 18.6667 12.0282 18.6437 12.5558 18.6164C13.1166 18.5874 13.501 18.1392 13.501 17.5777V17.2557C13.501 16.6942 13.1166 16.2459 12.5558 16.2169C12.0282 16.1897 11.2215 16.1667 10.001 16.1667C8.78047 16.1667 7.97372 16.1897 7.44613 16.2169Z" fill="#2749A3"/>
</svg>
