<svg width="33" height="31" viewBox="0 0 33 31" fill="none" xmlns="http://www.w3.org/2000/svg">
<path fill-rule="evenodd" clip-rule="evenodd" d="M3.92157 3.75492C2.75 4.92649 2.75 6.81211 2.75 10.5834V20.4167C2.75 24.1879 2.75 26.0735 3.92157 27.2451C5.09315 28.4167 6.97876 28.4167 10.75 28.4167H22.25C26.0212 28.4167 27.9069 28.4167 29.0784 27.2451C30.25 26.0735 30.25 24.1879 30.25 20.4167V10.5833C30.25 7.42603 30.25 5.59038 29.5625 4.3889V21.9583C29.0916 21.9583 28.8561 21.9583 28.6296 21.9324C27.9282 21.8522 27.2606 21.5878 26.6944 21.166C26.5116 21.0298 26.34 20.8686 25.9968 20.5462L24.7387 19.3644C23.4409 18.1453 22.7921 17.5357 22 17.5357C21.2079 17.5357 20.5591 18.1453 19.2613 19.3644L18.5318 20.0497C17.6051 20.9202 17.1418 21.3554 16.6382 21.2563C16.1345 21.1572 15.8706 20.5788 15.3429 19.4221L14.6892 17.9892C13.6337 15.6757 13.106 14.5189 12.0987 14.3207C11.0914 14.1225 10.1647 14.993 8.31133 16.7341L4.8125 20.0208V3.13861C4.47251 3.29553 4.17971 3.49679 3.92157 3.75492Z" fill="#2749A3"/>
<path d="M3.75 10.5833C3.75 8.66943 3.75212 7.33461 3.88753 6.32747C4.01907 5.34911 4.25966 4.83101 4.62868 4.46199C4.9977 4.09298 5.51579 3.85238 6.49416 3.72084C7.50129 3.58544 8.83611 3.58331 10.75 3.58331H22.25C24.1639 3.58331 25.4987 3.58544 26.5058 3.72084C27.4842 3.85238 28.0023 4.09298 28.3713 4.46199C28.7403 4.83101 28.9809 5.34911 29.1125 6.32747C29.2479 7.33461 29.25 8.66943 29.25 10.5833V20.4166C29.25 22.3305 29.2479 23.6653 29.1125 24.6725C28.9809 25.6509 28.7403 26.1689 28.3713 26.538C28.0023 26.907 27.4842 27.1476 26.5058 27.2791C25.4987 27.4145 24.1639 27.4166 22.25 27.4166H10.75C8.83611 27.4166 7.50129 27.4145 6.49416 27.2791C5.51579 27.1476 4.9977 26.907 4.62868 26.538L3.93882 27.2278L4.62868 26.538C4.25966 26.1689 4.01907 25.6509 3.88753 24.6725C3.75212 23.6654 3.75 22.3305 3.75 20.4166V10.5833Z" stroke="#587DBD" stroke-width="2"/>
<ellipse cx="20.625" cy="11.625" rx="2.75" ry="2.58333" fill="#2749A3"/>
</svg>
