<svg width="26" height="24" viewBox="0 0 26 24" fill="none" xmlns="http://www.w3.org/2000/svg">
<path d="M20.5827 17C20.5827 14.962 19.2957 13.164 17.3327 12.08V5H17.8743C18.3053 5 18.7186 4.84197 19.0234 4.56066C19.3281 4.27936 19.4993 3.89783 19.4993 3.5C19.4993 3.10218 19.3281 2.72064 19.0234 2.43934C18.7186 2.15804 18.3053 2 17.8743 2H8.12435C7.69337 2 7.28005 2.15804 6.9753 2.43934C6.67055 2.72064 6.49935 3.10218 6.49935 3.5C6.49935 3.89783 6.67055 4.27936 6.9753 4.56066C7.28005 4.84197 7.69337 5 8.12435 5H8.66602V12.08C6.70302 13.164 5.41602 14.962 5.41602 17H11.916V21C11.916 21.55 12.4035 22 12.9993 22C13.5952 22 14.0827 21.55 14.0827 21V17H20.5827Z" fill="white"/>
</svg>
