<svg width="48" height="49" viewBox="0 0 48 49" fill="none" xmlns="http://www.w3.org/2000/svg">
<path fill-rule="evenodd" clip-rule="evenodd" d="M21.117 24.9572L14.5237 20.2384L14.5237 20.2384L14.5237 20.2384C12.5515 18.8269 11.5654 18.1212 11.7709 17.4365C11.9764 16.7519 13.1881 16.7058 15.6116 16.6135L35.8716 15.8418C37.616 15.7754 38.4882 15.7422 38.7854 16.2841C39.0826 16.826 38.5857 17.5437 37.592 18.9789L25.8681 35.9116C24.4239 37.9975 23.7018 39.0404 23.0058 38.8316C22.3098 38.6227 22.2813 37.3545 22.2243 34.8181L22.2243 34.8181L22.0424 26.731L30.4369 22.0704C30.9197 21.8023 31.0938 21.1935 30.8257 20.7107C30.5576 20.2278 29.9489 20.0537 29.466 20.3218L21.117 24.9572Z" fill="#587DBD"/>
</svg>
