<svg width="22" height="22" viewBox="0 0 22 22" fill="none" xmlns="http://www.w3.org/2000/svg">
<path opacity="0.32" d="M3.66797 9.12541V4.58337C3.66797 3.06459 4.89919 1.83337 6.41797 1.83337H15.5846C17.1034 1.83337 18.3346 3.06459 18.3346 4.58337V9.12541C18.3346 9.72555 18.043 10.2867 17.5411 10.6156C15.9895 11.6322 12.5688 13.75 11.0013 13.75C9.4338 13.75 6.01312 11.6322 4.46153 10.6156C3.95954 10.2867 3.66797 9.72555 3.66797 9.12541Z" fill="white"/>
<path d="M3.66667 5.73012C3.19962 6.0768 2.78687 6.39386 2.4557 6.65284C1.90387 7.08436 1.55795 7.72076 1.51127 8.41971C1.44775 9.37085 1.375 10.9675 1.375 13.2917C1.375 15.4897 1.50513 17.037 1.62671 18.003C1.72696 18.7995 2.26022 19.4311 3.04644 19.5934C4.30707 19.8536 6.71431 20.1667 11 20.1667C15.2857 20.1667 17.6929 19.8536 18.9535 19.5934C19.7398 19.4311 20.273 18.7995 20.3733 18.003C20.4949 17.037 20.625 15.4897 20.625 13.2917C20.625 10.9675 20.5523 9.37085 20.4887 8.41971C20.442 7.72076 20.0961 7.08436 19.5443 6.65284C19.2131 6.39386 18.8004 6.0768 18.3333 5.73012V9.12541C18.3333 9.72555 18.0417 10.2867 17.5398 10.6156C15.9882 11.6322 12.5675 13.75 11 13.75C9.4325 13.75 6.01182 11.6322 4.46023 10.6156C3.95824 10.2867 3.66667 9.72555 3.66667 9.12541V5.73012Z" fill="white"/>
<path d="M6.41667 5.27087C6.41667 4.89119 6.72448 4.58337 7.10417 4.58337H11.2292C11.6089 4.58337 11.9167 4.89119 11.9167 5.27087C11.9167 5.65056 11.6089 5.95837 11.2292 5.95837H7.10417C6.72448 5.95837 6.41667 5.65056 6.41667 5.27087Z" fill="white"/>
<path d="M6.41667 8.47921C6.41667 8.09952 6.72448 7.79171 7.10417 7.79171H13.9792C14.3589 7.79171 14.6667 8.09952 14.6667 8.47921C14.6667 8.85889 14.3589 9.16671 13.9792 9.16671H7.10417C6.72448 9.16671 6.41667 8.85889 6.41667 8.47921Z" fill="white"/>
</svg>
