<svg width="29" height="29" viewBox="0 0 29 29" fill="none" xmlns="http://www.w3.org/2000/svg">
<path d="M3.67962 3.5426L5.51512 1.70711C5.90564 1.31658 6.5388 1.31658 6.92933 1.70711L11.7373 6.51512C12.1279 6.90564 12.1279 7.5388 11.7373 7.92933L9.75605 9.91062C9.50361 10.1631 9.44102 10.5487 9.60068 10.868C11.4466 14.5599 14.4401 17.5534 18.132 19.3993C18.4513 19.559 18.8369 19.4964 19.0894 19.244L21.0707 17.2627C21.4612 16.8721 22.0944 16.8721 22.4849 17.2627L27.2929 22.0707C27.6834 22.4612 27.6834 23.0944 27.2929 23.4849L25.4574 25.3204C23.3461 27.4317 20.0035 27.6693 17.6148 25.8777L11.9619 21.6381C10.2184 20.3305 8.66955 18.7816 7.3619 17.0381L3.12226 11.3852C1.33072 8.99652 1.56827 5.65395 3.67962 3.5426Z" stroke="#2749A3" stroke-width="2"/>
</svg>
