<svg width="57" height="53" viewBox="0 0 57 53" fill="none" xmlns="http://www.w3.org/2000/svg">
<path d="M33.9623 26.9416L31.8248 28.9291L33.9623 30.9166L31.1123 33.5666L41.3248 43.0624C42.7498 44.3874 44.8873 44.3874 46.3123 43.0624C47.7373 41.7374 47.7373 39.7499 46.3123 38.4249L33.9623 26.9416ZM43.2248 41.9582C42.2748 41.9582 41.3248 41.2957 41.3248 40.1916C41.3248 39.3082 42.0373 38.4249 43.2248 38.4249C44.4123 38.4249 45.1248 39.0874 45.1248 40.1916C45.1248 41.2957 44.4123 41.9582 43.2248 41.9582Z" fill="white"/>
<path d="M18.05 26.5L20.1875 25.175L23.75 21.4208L25.8875 23.4083L28.025 21.4208L27.7875 21.2C28.2625 20.0958 28.5 18.9917 28.5 17.6667C28.5 12.8083 24.225 8.83334 19 8.83334C17.575 8.83334 16.3875 9.05418 15.2 9.49584L22.0875 15.9L17.1 20.5375L10.2125 14.1333C9.7375 15.2375 9.5 16.3417 9.5 17.6667C9.5 22.3042 13.3 25.8375 18.05 26.5V26.5Z" fill="white"/>
<path d="M28.5004 32.6833L30.6379 30.9166L28.5004 28.9291L42.0379 16.3416L44.8879 15.4583L47.5004 10.5999L45.8379 9.05411L40.3754 11.2624L39.1879 13.9124L25.8879 26.4999L23.7504 24.5124L21.8504 26.4999C21.8504 26.4999 23.7504 27.8249 21.6129 29.8124C20.4254 30.9166 18.5254 29.5916 14.9629 32.9041C13.7754 34.0083 9.97539 37.5416 9.97539 37.5416C9.97539 37.5416 8.55039 39.7499 11.4004 42.3999C14.2504 45.0499 16.6254 43.7249 16.6254 43.7249C16.6254 43.7249 20.4254 40.1916 21.6129 39.0874C24.9379 35.9958 23.7504 34.0083 24.7004 33.1249C26.8379 31.1374 28.5004 32.6833 28.5004 32.6833V32.6833ZM21.1379 31.7999L22.8004 33.3458L13.7754 41.7374L12.1129 40.1916L21.1379 31.7999Z" fill="white"/>
</svg>
