<svg width="146" height="146" viewBox="0 0 146 146" fill="none" xmlns="http://www.w3.org/2000/svg">
<g opacity="0.48">
<path d="M1 73C1 33.2355 33.2355 1 73 1C112.765 1 145 33.2355 145 73C145 112.765 112.765 145 73 145C33.2355 145 1 112.765 1 73Z" fill="#F0F8FF"/>
<path d="M1 73C1 33.2355 33.2355 1 73 1C112.765 1 145 33.2355 145 73C145 112.765 112.765 145 73 145C33.2355 145 1 112.765 1 73Z" stroke="#919EAB" stroke-opacity="0.2" stroke-dasharray="3 2"/>
<circle cx="73" cy="73" r="64" fill="#C6E6FF"/>
<path fill-rule="evenodd" clip-rule="evenodd" d="M73.4993 59.6667C73.7646 59.6667 74.0189 59.7721 74.2065 59.9596C74.394 60.1472 74.4993 60.4015 74.4993 60.6667V62.3334H76.166C76.4312 62.3334 76.6856 62.4388 76.8731 62.6263C77.0607 62.8138 77.166 63.0682 77.166 63.3334C77.166 63.5986 77.0607 63.853 76.8731 64.0405C76.6856 64.228 76.4312 64.3334 76.166 64.3334H74.4993V66.0001C74.4993 66.2653 74.394 66.5196 74.2065 66.7072C74.0189 66.8947 73.7646 67.0001 73.4993 67.0001C73.2341 67.0001 72.9798 66.8947 72.7922 66.7072C72.6047 66.5196 72.4993 66.2653 72.4993 66.0001V64.3334H70.8327C70.5675 64.3334 70.3131 64.228 70.1256 64.0405C69.938 63.853 69.8327 63.5986 69.8327 63.3334C69.8327 63.0682 69.938 62.8138 70.1256 62.6263C70.3131 62.4388 70.5675 62.3334 70.8327 62.3334H72.4993V60.6667C72.4993 60.4015 72.6047 60.1472 72.7922 59.9596C72.9798 59.7721 73.2341 59.6667 73.4993 59.6667Z" fill="#2749A3"/>
<path fill-rule="evenodd" clip-rule="evenodd" d="M70.5367 74.0001H76.462C80.6234 74.0001 82.7047 74.0001 84.1993 73.0201C84.8443 72.5974 85.3997 72.0519 85.834 71.4147C86.8327 69.9481 86.8327 67.9041 86.8327 63.8187C86.8327 59.7321 86.8327 57.6894 85.834 56.2227C85.3997 55.5855 84.8443 55.0401 84.1993 54.6174C83.2393 53.9867 82.0367 53.7614 80.1953 53.6814C79.3167 53.6814 78.5607 53.0281 78.3887 52.1814C78.2572 51.5612 77.9157 51.0054 77.4218 50.608C76.9279 50.2105 76.312 49.9958 75.678 50.0001H71.3207C70.0033 50.0001 68.8687 50.9134 68.61 52.1814C68.438 53.0281 67.682 53.6814 66.8033 53.6814C64.9633 53.7614 63.7607 53.9881 62.7993 54.6174C62.1548 55.0401 61.5998 55.5856 61.166 56.2227C60.166 57.6894 60.166 59.7321 60.166 63.8187C60.166 67.9041 60.166 69.9467 61.1647 71.4147C61.5967 72.0494 62.1513 72.5947 62.7993 73.0201C64.294 74.0001 66.3753 74.0001 70.5367 74.0001ZM78.8327 63.3334C78.8327 64.7479 78.2708 66.1044 77.2706 67.1046C76.2704 68.1048 74.9138 68.6667 73.4993 68.6667C72.0849 68.6667 70.7283 68.1048 69.7281 67.1046C68.7279 66.1044 68.166 64.7479 68.166 63.3334C68.166 61.9189 68.7279 60.5624 69.7281 59.5622C70.7283 58.562 72.0849 58.0001 73.4993 58.0001C74.9138 58.0001 76.2704 58.562 77.2706 59.5622C78.2708 60.5624 78.8327 61.9189 78.8327 63.3334ZM81.4993 58.3334C81.2341 58.3334 80.9798 58.4388 80.7922 58.6263C80.6047 58.8138 80.4993 59.0682 80.4993 59.3334C80.4993 59.5986 80.6047 59.853 80.7922 60.0405C80.9798 60.228 81.2341 60.3334 81.4993 60.3334H82.8327C83.0979 60.3334 83.3523 60.228 83.5398 60.0405C83.7273 59.853 83.8327 59.5986 83.8327 59.3334C83.8327 59.0682 83.7273 58.8138 83.5398 58.6263C83.3523 58.4388 83.0979 58.3334 82.8327 58.3334H81.4993Z" fill="#2749A3"/>
<path d="M42.5329 92C42.5329 92.668 42.4229 93.234 42.2029 93.698C41.9829 94.162 41.6389 94.516 41.1709 94.76C40.7069 95 40.1029 95.12 39.3589 95.12C38.6069 95.12 37.9969 94.996 37.5289 94.748C37.0649 94.5 36.7249 94.136 36.5089 93.656C36.2969 93.176 36.1909 92.586 36.1909 91.886V86.324H37.3429V92.054C37.3429 92.754 37.5169 93.278 37.8649 93.626C38.2129 93.974 38.7109 94.148 39.3589 94.148C39.7949 94.148 40.1649 94.072 40.4689 93.92C40.7769 93.768 41.0109 93.538 41.1709 93.23C41.3349 92.918 41.4169 92.526 41.4169 92.054V86.324H42.5329V92ZM44.3653 96.932V88.796H45.4693L45.4813 89.876C45.5533 89.748 45.6453 89.614 45.7573 89.474C45.8733 89.334 46.0133 89.204 46.1773 89.084C46.3453 88.964 46.5393 88.866 46.7593 88.79C46.9833 88.714 47.2373 88.676 47.5213 88.676C48.0173 88.676 48.4533 88.79 48.8293 89.018C49.2093 89.242 49.5053 89.586 49.7173 90.05C49.9293 90.514 50.0353 91.102 50.0353 91.814C50.0353 92.526 49.9313 93.128 49.7233 93.62C49.5193 94.108 49.2233 94.48 48.8353 94.736C48.4473 94.992 47.9793 95.12 47.4313 95.12C47.1553 95.12 46.9093 95.08 46.6933 95C46.4813 94.924 46.2953 94.824 46.1353 94.7C45.9793 94.572 45.8473 94.436 45.7393 94.292C45.6353 94.148 45.5493 94.01 45.4813 93.878V96.932H44.3653ZM47.2213 94.256C47.7333 94.256 48.1513 94.062 48.4753 93.674C48.7993 93.282 48.9613 92.674 48.9613 91.85C48.9613 91.142 48.8133 90.58 48.5173 90.164C48.2213 89.748 47.7893 89.54 47.2213 89.54C46.6453 89.54 46.2093 89.754 45.9133 90.182C45.6173 90.606 45.4693 91.162 45.4693 91.85C45.4693 92.294 45.5353 92.698 45.6673 93.062C45.7993 93.426 45.9953 93.716 46.2553 93.932C46.5153 94.148 46.8373 94.256 47.2213 94.256ZM53.0563 95.078C52.7203 95.078 52.4483 95.032 52.2403 94.94C52.0363 94.848 51.8783 94.724 51.7663 94.568C51.6583 94.412 51.5843 94.234 51.5443 94.034C51.5083 93.83 51.4903 93.62 51.4903 93.404V86.084H52.5823V93.296C52.5823 93.608 52.6423 93.842 52.7623 93.998C52.8863 94.154 53.0583 94.24 53.2783 94.256L53.6143 94.262V94.982C53.5223 95.01 53.4263 95.032 53.3263 95.048C53.2263 95.068 53.1363 95.078 53.0563 95.078ZM57.4367 95.12C56.8647 95.12 56.3647 94.998 55.9367 94.754C55.5087 94.506 55.1767 94.144 54.9407 93.668C54.7047 93.192 54.5867 92.61 54.5867 91.922C54.5867 91.274 54.6967 90.706 54.9167 90.218C55.1367 89.73 55.4587 89.352 55.8827 89.084C56.3107 88.812 56.8287 88.676 57.4367 88.676C58.0087 88.676 58.5047 88.802 58.9247 89.054C59.3487 89.302 59.6767 89.668 59.9087 90.152C60.1407 90.636 60.2567 91.226 60.2567 91.922C60.2567 92.554 60.1487 93.11 59.9327 93.59C59.7207 94.07 59.4047 94.446 58.9847 94.718C58.5687 94.986 58.0527 95.12 57.4367 95.12ZM57.4367 94.244C57.8087 94.244 58.1227 94.15 58.3787 93.962C58.6347 93.774 58.8287 93.504 58.9607 93.152C59.0927 92.8 59.1587 92.382 59.1587 91.898C59.1587 91.454 59.1007 91.056 58.9847 90.704C58.8687 90.348 58.6827 90.066 58.4267 89.858C58.1747 89.65 57.8447 89.546 57.4367 89.546C57.0607 89.546 56.7427 89.64 56.4827 89.828C56.2227 90.012 56.0247 90.28 55.8887 90.632C55.7567 90.984 55.6907 91.406 55.6907 91.898C55.6907 92.334 55.7507 92.73 55.8707 93.086C55.9907 93.442 56.1787 93.724 56.4347 93.932C56.6907 94.14 57.0247 94.244 57.4367 94.244ZM63.3547 95.12C62.9547 95.12 62.6007 95.05 62.2927 94.91C61.9847 94.766 61.7427 94.56 61.5667 94.292C61.3947 94.024 61.3087 93.7 61.3087 93.32C61.3087 92.632 61.5487 92.12 62.0287 91.784C62.5087 91.448 63.2787 91.268 64.3387 91.244L65.4487 91.214V90.728C65.4487 90.348 65.3347 90.048 65.1067 89.828C64.8787 89.604 64.5247 89.492 64.0447 89.492C63.6887 89.496 63.3747 89.58 63.1027 89.744C62.8347 89.908 62.6607 90.176 62.5807 90.548H61.6027C61.6267 90.144 61.7407 89.804 61.9447 89.528C62.1487 89.248 62.4327 89.036 62.7967 88.892C63.1647 88.748 63.5987 88.676 64.0987 88.676C64.6387 88.676 65.0867 88.752 65.4427 88.904C65.8027 89.056 66.0707 89.28 66.2467 89.576C66.4267 89.872 66.5167 90.236 66.5167 90.668V95H65.5687L65.4907 93.836C65.2507 94.32 64.9447 94.656 64.5727 94.844C64.2047 95.028 63.7987 95.12 63.3547 95.12ZM63.6907 94.322C63.8987 94.322 64.1047 94.284 64.3087 94.208C64.5167 94.132 64.7067 94.03 64.8787 93.902C65.0507 93.77 65.1867 93.624 65.2867 93.464C65.3907 93.3 65.4447 93.132 65.4487 92.96V91.898L64.5247 91.916C64.0527 91.924 63.6567 91.972 63.3367 92.06C63.0207 92.148 62.7827 92.286 62.6227 92.474C62.4667 92.662 62.3887 92.908 62.3887 93.212C62.3887 93.56 62.5087 93.832 62.7487 94.028C62.9927 94.224 63.3067 94.322 63.6907 94.322ZM70.6501 95.12C69.8461 95.12 69.2081 94.844 68.7361 94.292C68.2641 93.74 68.0281 92.934 68.0281 91.874C68.0281 91.23 68.1221 90.668 68.3101 90.188C68.5021 89.708 68.7861 89.336 69.1621 89.072C69.5381 88.808 70.0061 88.676 70.5661 88.676C70.8621 88.676 71.1241 88.714 71.3521 88.79C71.5841 88.866 71.7841 88.962 71.9521 89.078C72.1201 89.194 72.2561 89.314 72.3601 89.438C72.4681 89.562 72.5481 89.676 72.6001 89.78V86.084H73.7161V95H72.8701L72.7501 93.728C72.7101 93.848 72.6461 93.988 72.5581 94.148C72.4701 94.304 72.3461 94.458 72.1861 94.61C72.0261 94.758 71.8201 94.88 71.5681 94.976C71.3201 95.072 71.0141 95.12 70.6501 95.12ZM70.8481 94.268C71.4761 94.268 71.9241 94.078 72.1921 93.698C72.4641 93.314 72.6001 92.688 72.6001 91.82C72.5961 91.336 72.5341 90.924 72.4141 90.584C72.2981 90.244 72.1141 89.986 71.8621 89.81C71.6141 89.63 71.2841 89.54 70.8721 89.54C70.3601 89.54 69.9441 89.722 69.6241 90.086C69.3041 90.45 69.1441 91.028 69.1441 91.82C69.1441 92.596 69.2881 93.198 69.5761 93.626C69.8681 94.054 70.2921 94.268 70.8481 94.268ZM78.5425 86.324H79.6525V95H78.5425V86.324ZM81.7129 95V88.796H82.7809V89.696C82.9529 89.424 83.1889 89.186 83.4889 88.982C83.7889 88.778 84.1789 88.676 84.6589 88.676C84.8829 88.676 85.1109 88.714 85.3429 88.79C85.5789 88.866 85.7949 88.98 85.9909 89.132C86.1869 89.284 86.3389 89.47 86.4469 89.69C86.6389 89.386 86.8989 89.142 87.2269 88.958C87.5549 88.77 87.9249 88.676 88.3369 88.676C88.5529 88.676 88.7789 88.71 89.0149 88.778C89.2509 88.842 89.4689 88.958 89.6689 89.126C89.8729 89.29 90.0389 89.52 90.1669 89.816C90.2949 90.108 90.3589 90.484 90.3589 90.944V95H89.2429V91.052C89.2429 90.676 89.1829 90.386 89.0629 90.182C88.9429 89.974 88.7849 89.828 88.5889 89.744C88.3969 89.66 88.1909 89.618 87.9709 89.618C87.7789 89.618 87.5749 89.656 87.3589 89.732C87.1429 89.808 86.9589 89.936 86.8069 90.116C86.6549 90.296 86.5789 90.542 86.5789 90.854V95H85.4749V90.728C85.4749 90.484 85.4089 90.28 85.2769 90.116C85.1489 89.952 84.9869 89.828 84.7909 89.744C84.5989 89.66 84.4069 89.618 84.2149 89.618C84.0029 89.618 83.7889 89.66 83.5729 89.744C83.3609 89.828 83.1809 89.962 83.0329 90.146C82.8889 90.326 82.8169 90.562 82.8169 90.854V95H81.7129ZM93.7883 95.12C93.3883 95.12 93.0343 95.05 92.7263 94.91C92.4183 94.766 92.1763 94.56 92.0003 94.292C91.8283 94.024 91.7423 93.7 91.7423 93.32C91.7423 92.632 91.9823 92.12 92.4623 91.784C92.9423 91.448 93.7123 91.268 94.7723 91.244L95.8823 91.214V90.728C95.8823 90.348 95.7683 90.048 95.5403 89.828C95.3123 89.604 94.9583 89.492 94.4783 89.492C94.1223 89.496 93.8083 89.58 93.5363 89.744C93.2683 89.908 93.0943 90.176 93.0143 90.548H92.0363C92.0603 90.144 92.1743 89.804 92.3783 89.528C92.5823 89.248 92.8663 89.036 93.2303 88.892C93.5983 88.748 94.0323 88.676 94.5323 88.676C95.0723 88.676 95.5203 88.752 95.8763 88.904C96.2363 89.056 96.5043 89.28 96.6803 89.576C96.8603 89.872 96.9503 90.236 96.9503 90.668V95H96.0023L95.9243 93.836C95.6843 94.32 95.3783 94.656 95.0063 94.844C94.6383 95.028 94.2323 95.12 93.7883 95.12ZM94.1243 94.322C94.3323 94.322 94.5383 94.284 94.7423 94.208C94.9503 94.132 95.1403 94.03 95.3123 93.902C95.4843 93.77 95.6203 93.624 95.7203 93.464C95.8243 93.3 95.8783 93.132 95.8823 92.96V91.898L94.9583 91.916C94.4863 91.924 94.0903 91.972 93.7703 92.06C93.4543 92.148 93.2163 92.286 93.0563 92.474C92.9003 92.662 92.8223 92.908 92.8223 93.212C92.8223 93.56 92.9423 93.832 93.1823 94.028C93.4263 94.224 93.7403 94.322 94.1243 94.322ZM101.462 97.052C100.486 97.052 99.7257 96.91 99.1817 96.626C98.6417 96.346 98.3717 95.944 98.3717 95.42C98.3717 95.196 98.4237 95.006 98.5277 94.85C98.6317 94.69 98.7557 94.558 98.8997 94.454C99.0437 94.35 99.1777 94.268 99.3017 94.208C99.4257 94.144 99.5057 94.098 99.5417 94.07C99.4737 94.03 99.3877 93.98 99.2837 93.92C99.1837 93.86 99.0957 93.78 99.0197 93.68C98.9437 93.58 98.9057 93.45 98.9057 93.29C98.9057 93.094 98.9977 92.914 99.1817 92.75C99.3657 92.586 99.6377 92.464 99.9977 92.384C99.6337 92.2 99.3497 91.956 99.1457 91.652C98.9417 91.348 98.8397 91.018 98.8397 90.662C98.8397 90.262 98.9477 89.914 99.1637 89.618C99.3837 89.322 99.6957 89.096 100.1 88.94C100.504 88.78 100.984 88.7 101.54 88.7C101.944 88.7 102.284 88.748 102.56 88.844C102.836 88.936 103.092 89.068 103.328 89.24C103.392 89.212 103.492 89.17 103.628 89.114C103.768 89.054 103.922 88.99 104.09 88.922C104.258 88.854 104.414 88.79 104.558 88.73C104.706 88.666 104.824 88.618 104.912 88.586L104.906 89.612L103.82 89.816C103.88 89.944 103.928 90.084 103.964 90.236C104.004 90.388 104.024 90.53 104.024 90.662C104.024 91.026 103.928 91.356 103.736 91.652C103.548 91.948 103.262 92.184 102.878 92.36C102.494 92.536 102.014 92.624 101.438 92.624C101.39 92.624 101.328 92.624 101.252 92.624C101.18 92.62 101.118 92.616 101.066 92.612C100.642 92.624 100.35 92.672 100.19 92.756C100.03 92.836 99.9497 92.926 99.9497 93.026C99.9497 93.142 100.04 93.222 100.22 93.266C100.4 93.31 100.706 93.348 101.138 93.38C101.294 93.388 101.486 93.398 101.714 93.41C101.946 93.422 102.202 93.438 102.482 93.458C103.134 93.498 103.636 93.664 103.988 93.956C104.34 94.248 104.516 94.642 104.516 95.138C104.516 95.702 104.264 96.162 103.76 96.518C103.256 96.874 102.49 97.052 101.462 97.052ZM101.66 96.338C102.232 96.338 102.67 96.252 102.974 96.08C103.278 95.908 103.43 95.648 103.43 95.3C103.43 95.052 103.336 94.85 103.148 94.694C102.964 94.534 102.682 94.442 102.302 94.418L100.562 94.304C100.406 94.296 100.244 94.336 100.076 94.424C99.9077 94.508 99.7637 94.626 99.6437 94.778C99.5277 94.93 99.4697 95.102 99.4697 95.294C99.4697 95.622 99.6477 95.878 100.004 96.062C100.364 96.246 100.916 96.338 101.66 96.338ZM101.468 91.91C101.916 91.91 102.276 91.806 102.548 91.598C102.824 91.39 102.962 91.082 102.962 90.674C102.962 90.254 102.824 89.934 102.548 89.714C102.276 89.494 101.916 89.384 101.468 89.384C101.016 89.384 100.65 89.496 100.37 89.72C100.094 89.94 99.9557 90.258 99.9557 90.674C99.9557 91.066 100.088 91.37 100.352 91.586C100.616 91.802 100.988 91.91 101.468 91.91ZM106.903 92.156C106.903 92.548 106.967 92.904 107.095 93.224C107.227 93.54 107.425 93.792 107.689 93.98C107.957 94.168 108.291 94.262 108.691 94.262C109.087 94.262 109.427 94.17 109.711 93.986C109.999 93.802 110.183 93.536 110.263 93.188H111.313C111.237 93.608 111.069 93.962 110.809 94.25C110.549 94.538 110.235 94.756 109.867 94.904C109.499 95.048 109.115 95.12 108.715 95.12C108.135 95.12 107.625 94.994 107.185 94.742C106.745 94.49 106.401 94.128 106.153 93.656C105.905 93.184 105.781 92.618 105.781 91.958C105.781 91.306 105.893 90.734 106.117 90.242C106.341 89.75 106.665 89.366 107.089 89.09C107.517 88.814 108.031 88.676 108.631 88.676C109.215 88.676 109.709 88.802 110.113 89.054C110.517 89.306 110.823 89.662 111.031 90.122C111.243 90.578 111.349 91.12 111.349 91.748V92.156H106.903ZM106.909 91.406H110.281C110.281 91.05 110.221 90.73 110.101 90.446C109.981 90.158 109.797 89.932 109.549 89.768C109.305 89.6 108.997 89.516 108.625 89.516C108.237 89.516 107.915 89.61 107.659 89.798C107.407 89.982 107.217 90.22 107.089 90.512C106.965 90.8 106.905 91.098 106.909 91.406Z" fill="#2749A3"/>
</g>
</svg>
