<svg width="22" height="22" viewBox="0 0 22 22" fill="none" xmlns="http://www.w3.org/2000/svg">
<g opacity="0.32">
<path d="M11.5352 7.12204C11.7796 6.63077 11.917 6.07692 11.917 5.49097C11.917 4.90501 11.7796 4.35116 11.5352 3.85989C12.0359 3.18119 12.8413 2.74097 13.7494 2.74097C15.2682 2.74097 16.4994 3.97218 16.4994 5.49097C16.4994 7.00975 15.2682 8.24097 13.7494 8.24097C12.8413 8.24097 12.0359 7.80074 11.5352 7.12204Z" fill="white"/>
<path d="M12.8875 18.1096C13.4344 18.2479 14.0354 18.3243 14.6661 18.3243C17.1974 18.3243 19.2494 17.0931 19.2494 15.5743C19.2494 14.0555 17.1974 12.8243 14.6661 12.8243C14.0346 12.8243 13.4328 12.9009 12.8854 13.0396C13.989 13.6981 14.667 14.5914 14.667 15.5752C14.667 16.5584 13.9899 17.4511 12.8875 18.1096Z" fill="white"/>
</g>
<path d="M8.2526 9.15755C10.2776 9.15755 11.9193 7.51593 11.9193 5.49089C11.9193 3.46584 10.2776 1.82422 8.2526 1.82422C6.22756 1.82422 4.58594 3.46584 4.58594 5.49089C4.58594 7.51593 6.22756 9.15755 8.2526 9.15755Z" fill="white"/>
<path d="M8.2526 19.2418C11.7964 19.2418 14.6693 17.6002 14.6693 15.5751C14.6693 13.5501 11.7964 11.9085 8.2526 11.9085C4.70878 11.9085 1.83594 13.5501 1.83594 15.5751C1.83594 17.6002 4.70878 19.2418 8.2526 19.2418Z" fill="white"/>
</svg>
