<svg width="78" height="78" viewBox="0 0 78 78" fill="none" xmlns="http://www.w3.org/2000/svg">
<path fill-rule="evenodd" clip-rule="evenodd" d="M39.0013 0.666656C17.8304 0.666656 0.667969 17.8291 0.667969 39C0.667969 60.1709 17.8304 77.3333 39.0013 77.3333C60.1722 77.3333 77.3346 60.1709 77.3346 39C77.3346 28.8334 73.296 19.0831 66.1071 11.8942C58.9182 4.70534 49.1679 0.666656 39.0013 0.666656ZM39.0013 58.1667C36.8842 58.1667 35.168 56.4504 35.168 54.3333C35.168 52.2162 36.8842 50.5 39.0013 50.5C41.1184 50.5 42.8346 52.2162 42.8346 54.3333C42.8346 56.4504 41.1184 58.1667 39.0013 58.1667ZM39.0013 46.6667C41.1184 46.6667 42.8346 44.9504 42.8346 42.8333V23.6667C42.8346 21.5496 41.1184 19.8333 39.0013 19.8333C36.8842 19.8333 35.168 21.5496 35.168 23.6667V42.8333C35.168 44.9504 36.8842 46.6667 39.0013 46.6667Z" fill="#1877F2"/>
</svg>
