<?xml version="1.0" encoding="UTF-8"?>
<svg id="Layer_1" data-name="Layer 1" xmlns="http://www.w3.org/2000/svg" viewBox="0 0 133.23 161.57">
  <defs>
    <style>
      .cls-1, .cls-2 {
        fill: #1f4386;
      }

      .cls-2 {
        stroke: #fff;
      }

      .cls-2, .cls-3 {
        stroke-miterlimit: 10;
      }

      .cls-3 {
        fill: #fff;
        stroke: #1f4386;
      }
    </style>
  </defs>
  <polygon class="cls-3" points="56.5 92.81 73.62 84.44 72.98 47.14 97.96 33.98 69.78 5.81 56.5 13.05 56.5 92.81"/>
  <polygon class="cls-1" points="71.21 128.03 71.21 114.28 63.73 131.9 71.21 128.03"/>
  <polygon class="cls-1" points="50.68 126.62 50.68 138.64 55.05 136.39 55.4 136.18 55.07 135.49 50.68 126.62"/>
  <path class="cls-2" d="m97.75,63.93c-3.66.07-6.59,3.13-6.54,6.83.05,3.63,3.13,6.61,6.77,6.56,3.7-.05,6.69-3.11,6.63-6.79-.06-3.72-3.14-6.68-6.86-6.61Z"/>
  <path class="cls-1" d="m78.57,50.99v38.17l-61.74,29.93v37.04l25.63-13.25v-28.39h8.21l7.41,13.9,12.57-30.95.55-1.27h8.21v27.61l37.31-19.29V31.16l-38.17,19.83Zm32.47,25.01c-1.09,3.07-2.52,5.98-4.06,8.84-2.68,4.96-5.64,9.75-8.78,14.43-.08.12-.18.24-.3.41-.52-.79-1.02-1.52-1.51-2.26-2.63-4.04-5.15-8.13-7.43-12.38-1.66-3.08-3.14-6.25-4.37-9.54-3.4-9.18,4.36-19.49,14.96-18.29,7.21.81,12.6,6.96,12.5,14.22-.02,1.59-.48,3.09-1.01,4.57Z"/>
  <polygon class="cls-3" points="20.74 111.53 28.47 107.5 28.47 80.43 20.74 83.7 20.74 111.53"/>
  <polygon class="cls-3" points="31.54 106.28 39.27 102.29 39.27 54.59 31.54 59.89 31.54 106.28"/>
  <polygon class="cls-3" points="43.23 100.53 50.96 96.52 50.96 59.6 43.23 63.8 43.23 100.53"/>
</svg>